<svg id="iron-new_iron-bank-universal-bank-logo" preserveAspectRatio="xMidYMid slice" viewBox="0 0 300 28" xmlns="http://www.w3.org/2000/svg"><g fill="none" fill-rule="evenodd"><path d="M30.544 18.92V7.105a4.425 4.425 0 0 0-1.626.482 4.903 4.903 0 0 0-1.612 1.35 6.08 6.08 0 0 0-.98 1.9A7.155 7.155 0 0 0 25.991 13c0 .767.116 1.508.348 2.225.231.717.566 1.35 1.004 1.9.438.55.975.992 1.612 1.325.48.251 1.01.408 1.589.47zm1.377-.027a4.266 4.266 0 0 0 1.399-.456 5.008 5.008 0 0 0 1.612-1.362 6.09 6.09 0 0 0 .992-1.912c.223-.709.335-1.43.335-2.163 0-.767-.12-1.508-.36-2.225a6.15 6.15 0 0 0-1.017-1.9 4.862 4.862 0 0 0-1.612-1.313 4.403 4.403 0 0 0-1.349-.429v11.76zM0 21.18V4.819c0-.383.308-.694.689-.694h2.045c.38 0 .689.31.689.694v16.362a.692.692 0 0 1-.69.694H.69A.692.692 0 0 1 0 21.181zm7.093 0V4.819c0-.383.308-.694.689-.694h7.099c.81 0 1.558.17 2.244.513a5.811 5.811 0 0 1 1.773 1.35 6.379 6.379 0 0 1 1.166 1.9c.281.708.422 1.42.422 2.137 0 1.15-.286 2.196-.856 3.137-.57.942-1.343 1.621-2.319 2.038l3.383 5.62a.698.698 0 0 1-.232.954.685.685 0 0 1-.357.101h-2.233a.688.688 0 0 1-.589-.333l-3.395-5.617h-3.372v5.256a.692.692 0 0 1-.69.694H7.783a.692.692 0 0 1-.689-.694zm3.423-8.281h4.29c.314 0 .608-.075.88-.225.273-.15.509-.354.707-.613.199-.258.356-.562.472-.912.115-.35.173-.725.173-1.125 0-.417-.066-.8-.198-1.15a3.006 3.006 0 0 0-.533-.912 2.414 2.414 0 0 0-.77-.6 1.983 1.983 0 0 0-.88-.213h-4.141v5.75zM31.1 22c-1.29 0-2.46-.254-3.509-.762a8.624 8.624 0 0 1-2.703-2.026 9.227 9.227 0 0 1-1.749-2.887A9.255 9.255 0 0 1 22.52 13c0-1.183.22-2.317.657-3.4a9.393 9.393 0 0 1 1.81-2.875 8.64 8.64 0 0 1 2.741-1.987C28.786 4.245 29.935 4 31.175 4c1.273 0 2.434.262 3.484.787A8.712 8.712 0 0 1 37.35 6.85a9.51 9.51 0 0 1 1.736 2.9 9.19 9.19 0 0 1 .62 3.3 9.039 9.039 0 0 1-.645 3.387 9.207 9.207 0 0 1-1.785 2.85 8.588 8.588 0 0 1-2.728 1.976c-1.059.491-2.208.737-3.448.737zm14.658-11.5v10.68a.692.692 0 0 1-.69.695h-2.044a.692.692 0 0 1-.689-.694V4.819c0-.383.309-.694.689-.694h1.632c.21 0 .409.097.54.263l8.97 11.387V4.845c0-.384.308-.695.688-.695h2.045c.38 0 .689.31.689.694v16.337a.692.692 0 0 1-.69.694H55.14a.687.687 0 0 1-.537-.26L45.758 10.5zm35.638 6.8c0 .75-.148 1.408-.446 1.975a4.138 4.138 0 0 1-1.228 1.425 5.727 5.727 0 0 1-1.81.875c-.686.2-1.418.3-2.195.3h-7.818a.692.692 0 0 1-.689-.694V4.819c0-.383.309-.694.69-.694h8.735c.611 0 1.165.133 1.661.4s.918.612 1.265 1.037c.347.426.616.909.806 1.45.19.542.285 1.088.285 1.638 0 .867-.215 1.68-.644 2.438-.43.758-1.059 1.32-1.885 1.687 1.008.3 1.806.837 2.393 1.612.587.776.88 1.746.88 2.913zm-3.447-.65c0-.317-.054-.62-.161-.912a2.54 2.54 0 0 0-.434-.763 2.024 2.024 0 0 0-.645-.512 1.792 1.792 0 0 0-.818-.188h-5.258v4.675h5.084c.314 0 .608-.058.88-.175a2.11 2.11 0 0 0 .707-.487 2.34 2.34 0 0 0 .472-.738c.115-.283.173-.583.173-.9zm-7.316-9.575v4.475h4.563c.579 0 1.07-.2 1.476-.6.405-.4.607-.95.607-1.65 0-.683-.186-1.225-.558-1.625-.372-.4-.83-.6-1.376-.6h-4.712zm18.926-2.95h2.076a.69.69 0 0 1 .644.448l6.173 16.36a.696.696 0 0 1-.644.942h-2.045a.69.69 0 0 1-.645-.452l-1.47-3.973h-6.15l-1.447 3.97a.69.69 0 0 1-.647.455h-2.04a.692.692 0 0 1-.644-.942l6.196-16.361a.69.69 0 0 1 .643-.447zm3.469 10.9l-2.43-6.975-2.53 6.975h4.96zm11.136-4.525v10.68a.692.692 0 0 1-.69.695h-2.044a.692.692 0 0 1-.689-.694V4.819c0-.383.309-.694.689-.694h1.632c.21 0 .409.097.54.263l8.97 11.387V4.845c0-.384.308-.695.688-.695h2.045c.38 0 .689.31.689.694v16.337a.692.692 0 0 1-.69.694h-1.758a.687.687 0 0 1-.537-.26L104.164 10.5zm15.5 10.68V4.845c0-.383.309-.694.69-.694h2.044c.38 0 .689.31.689.694v7.731l7.185-8.215a.687.687 0 0 1 .516-.235h1.954c.38 0 .689.31.689.694 0 .167-.06.328-.168.454L127.501 12l6.366 8.77a.698.698 0 0 1-.15.971.685.685 0 0 1-.406.134h-2.134a.687.687 0 0 1-.559-.289l-5.274-7.386-2.257 2.375v4.606a.692.692 0 0 1-.69.694h-2.044a.692.692 0 0 1-.689-.694z" fill="#FFF"></path><path d="M290.416 7.045h2.684V15.7h.151l3.49-4.158 2.475-.007-3.829 4.546L300 21.766h-3.091l-3.771-5.291h-.038v5.29h-2.684V7.046zm-127.583.658v8.072c0 2.75.804 4.253 3.052 4.253 2.154 0 3.015-1.822 3.015-4.094V7.703h2.536v8.734c0 3.55-2.293 5.563-5.63 5.563-3.82 0-5.806-1.871-5.806-5.704V7.703h2.833zm14.532 5.2c.908-.962 2.172-1.424 3.44-1.424 2.353 0 3.597 1.281 3.597 3.811v6.467h-2.669v-6.163c0-1.407-.622-2.331-2.012-2.331-1.307 0-2.334.864-2.334 2.512v5.982h-2.672v-10.04h2.65v1.186zm10.177 8.854v-10.04h2.673v10.04h-2.673zm-.262-13.05c0-.762.642-1.547 1.55-1.547.924 0 1.644.764 1.644 1.547 0 .862-.619 1.686-1.606 1.686-.946 0-1.588-.824-1.588-1.686zm8.849 13.05l-4.278-10.082h2.833c.865 2.31 1.765 4.482 2.607 7.272h.04c.909-2.79 1.763-4.963 2.687-7.272h2.507l-4.529 10.082h-1.867zm14.35-6.223c.104-1.53-.44-2.57-1.763-2.57-1.534 0-2.221 1.223-2.192 2.57h3.954zm-4 1.446c-.06 1.889 1.266 3.291 2.935 3.291.99 0 2.03-.34 2.697-.804l.763 1.407c-1.366.802-2.796 1.126-3.941 1.126-3.035 0-5.306-2.15-5.306-5.463 0-3.093 2.249-5.058 5.125-5.058 3.136 0 4.444 2.508 4.247 5.5h-6.52zm11.765-3.496h.038l.544-.782c.3-.444.903-1.223 1.727-1.223.603 0 1.25.321 1.813.901l-1.009 1.848c-.442-.224-.725-.342-1.264-.342-.925 0-1.83.744-1.83 2.91v4.96h-2.68V11.718h2.661v1.767zm11.257.12c-.602-.441-1.226-.64-1.71-.64-.602 0-1.207.34-1.207 1.023 0 .803.967 1.266 2.091 2.086 1.433 1.07 1.85 2.112 1.85 3.031 0 1.41-1.55 2.896-3.757 2.896-1.389 0-2.414-.484-3.356-1.146l.844-1.387c.6.485 1.463.963 2.185.963.77 0 1.45-.402 1.45-1.244 0-.944-1.047-1.465-2.009-2.149-1.147-.781-1.928-1.545-1.928-2.788 0-1.589 1.523-2.77 3.494-2.77 1.11 0 2.191.279 2.92.924l-.867 1.201zm7.616 2.812c-1.304.422-1.968 1.164-1.968 2.308 0 .885.563 1.487 1.212 1.487 1.06 0 2.449-1.326 2.25-4.277l-1.494.482zm.85 4.379c-.727.602-1.651 1.205-2.572 1.205-1.571 0-2.88-1.205-2.88-3.053 0-1.91 1.39-2.972 3.723-3.657l2.373-.703c-.14-.922-.967-1.503-1.827-1.503-1.15 0-1.955.422-2.658 1.025l-.867-1.266c1.25-1.023 2.473-1.364 3.858-1.364 1.854 0 4.127.598 4.127 3.734v4.094c0 .804.098 1.75.422 2.45h-2.833c-.207-.342-.264-.922-.264-1.465l-.603.503zm6.273.962V7h2.675v14.757h-2.675zm26.357-5.34c-1.309.421-1.972 1.163-1.972 2.307 0 .885.56 1.487 1.207 1.487 1.06 0 2.451-1.326 2.255-4.277l-1.49.482zm.838 4.378c-.72.602-1.646 1.205-2.571 1.205-1.567 0-2.876-1.205-2.876-3.053 0-1.91 1.388-2.972 3.724-3.657l2.375-.703c-.148-.922-.967-1.503-1.837-1.503-1.143 0-1.95.422-2.653 1.025l-.865-1.266c1.247-1.023 2.475-1.364 3.865-1.364 1.845 0 4.116.598 4.116 3.734v4.094c0 .804.1 1.75.42 2.45h-2.83c-.199-.342-.265-.922-.265-1.465l-.603.503zm8.93-7.892c.905-.962 2.174-1.424 3.439-1.424 2.35 0 3.597 1.281 3.597 3.811v6.467h-2.673v-6.163c0-1.407-.624-2.331-2.011-2.331-1.308 0-2.333.864-2.333 2.512v5.982h-2.673v-10.04h2.653v1.186zm-23.695 7.163h1.447c1.57 0 2.76-.821 2.76-2.386 0-1.648-1.229-2.35-2.776-2.35h-1.431v4.736zm0-6.462h.89c1.63 0 2.737-1.043 2.737-2.351 0-1.243-.93-1.783-2.156-1.783h-1.471v4.134zm-2.832 8.191V7.741h5.088c2.37 0 4.041 1.084 4.041 2.991 0 2.248-1.829 3.174-2.813 3.433v.04c1.75.082 3.697 1.285 3.697 3.433 0 2.428-2.033 4.157-5.346 4.157h-4.667z" fill="#FFFFFE" opacity=".5"></path><path d="M146 0h1v28h-1z" fill="#D8D8D8" opacity=".5"></path></g></svg>