<svg xmlns="http://www.w3.org/2000/svg" width="267" height="24" viewBox="0 0 267 24">
    <g fill="#FFF" fill-rule="evenodd">
        <path d="M17.96 17V8.624c0-2.376-1.272-3.504-3.408-3.504-1.776 0-3.312 1.056-3.984 2.112-.432-1.32-1.512-2.112-3.216-2.112-1.776 0-3.312 1.104-3.792 1.8V5.408H.512V17H3.56V9.2c.456-.648 1.344-1.368 2.4-1.368 1.248 0 1.728.768 1.728 1.848V17h3.072V9.176c.432-.624 1.32-1.344 2.4-1.344 1.248 0 1.728.768 1.728 1.848V17h3.072zm8.376.288c-3.816 0-6.12-2.784-6.12-6.096 0-3.288 2.304-6.072 6.12-6.072 3.84 0 6.144 2.784 6.144 6.072 0 3.312-2.304 6.096-6.144 6.096zm0-2.712c1.896 0 2.976-1.56 2.976-3.384 0-1.8-1.08-3.36-2.976-3.36s-2.952 1.56-2.952 3.36c0 1.824 1.056 3.384 2.952 3.384zM45.608 17V8.816c0-2.256-1.224-3.696-3.768-3.696-1.896 0-3.312.912-4.056 1.8V5.408h-3.048V17h3.048V9.2c.504-.696 1.44-1.368 2.64-1.368 1.296 0 2.136.552 2.136 2.16V17h3.048zm8.4.288c-3.816 0-6.12-2.784-6.12-6.096 0-3.288 2.304-6.072 6.12-6.072 3.84 0 6.144 2.784 6.144 6.072 0 3.312-2.304 6.096-6.144 6.096zm0-2.712c1.896 0 2.976-1.56 2.976-3.384 0-1.8-1.08-3.36-2.976-3.36s-2.952 1.56-2.952 3.36c0 1.824 1.056 3.384 2.952 3.384zm11.448-1.296c.504.744 1.632 1.296 2.616 1.296 1.776 0 2.952-1.344 2.952-3.36s-1.176-3.384-2.952-3.384c-.984 0-2.112.576-2.616 1.344v4.104zm0 3.72h-3.048V.992h3.048v5.904c.912-1.176 2.208-1.776 3.576-1.776 2.952 0 5.136 2.304 5.136 6.096 0 3.864-2.208 6.072-5.136 6.072-1.392 0-2.664-.624-3.576-1.776V17zm21.024 0h-3.048v-1.2c-.792.936-2.16 1.488-3.672 1.488-1.848 0-4.032-1.248-4.032-3.84 0-2.712 2.184-3.744 4.032-3.744 1.536 0 2.904.504 3.672 1.416V9.56c0-1.176-1.008-1.944-2.544-1.944-1.248 0-2.4.456-3.384 1.368l-1.152-2.04c1.416-1.248 3.24-1.824 5.064-1.824 2.64 0 5.064 1.056 5.064 4.392V17zm-5.496-1.776c.984 0 1.944-.336 2.448-1.008v-1.44c-.504-.672-1.464-1.008-2.448-1.008-1.2 0-2.184.624-2.184 1.752 0 1.08.984 1.704 2.184 1.704zM100.376 17V8.816c0-2.256-1.224-3.696-3.768-3.696-1.896 0-3.312.912-4.056 1.8V5.408h-3.048V17h3.048V9.2c.504-.696 1.44-1.368 2.64-1.368 1.296 0 2.136.552 2.136 2.16V17h3.048zm14.352 0L110 10.664l4.584-5.256h-3.744l-4.392 5.16V.992H103.4V17h3.048v-2.976l1.392-1.488L110.912 17h3.816z"/>
        <g opacity=".56">
            <path d="M257.767 3.182h2.497v7.942h.141l3.247-3.815 2.303-.006-3.562 4.17 4.291 5.215h-2.876l-3.508-4.854h-.036v4.854h-2.497V3.182M139.065 3.786v7.406c0 2.523.747 3.902 2.84 3.902 2.003 0 2.804-1.672 2.804-3.756V3.786h2.36v8.013c0 3.258-2.134 5.104-5.238 5.104-3.554 0-5.402-1.717-5.402-5.233V3.786h2.636M152.585 8.557c.845-.883 2.021-1.307 3.201-1.307 2.188 0 3.346 1.176 3.346 3.497v5.933h-2.483v-5.654c0-1.291-.579-2.139-1.872-2.139-1.216 0-2.171.793-2.171 2.305v5.488h-2.486V7.469h2.465v1.088M162.054 16.68h2.487V7.469h-2.487v9.211zm-.244-11.973c0-.699.597-1.419 1.442-1.419.86 0 1.53.701 1.53 1.419 0 .791-.576 1.547-1.494 1.547-.88 0-1.478-.756-1.478-1.547zM170.043 16.68l-3.98-9.25h2.635c.806 2.119 1.642 4.112 2.426 6.672h.038c.845-2.56 1.64-4.553 2.499-6.672h2.333l-4.214 9.25h-1.737M183.394 10.971c.097-1.404-.409-2.359-1.64-2.359-1.427 0-2.067 1.123-2.04 2.359h3.68zm-3.721 1.326c-.056 1.733 1.178 3.02 2.73 3.02.922 0 1.89-.313 2.51-.738l.71 1.291c-1.272.736-2.602 1.033-3.667 1.033-2.825 0-4.937-1.973-4.937-5.012 0-2.838 2.092-4.641 4.768-4.641 2.918 0 4.135 2.301 3.951 5.047h-6.065zM190.619 9.09h.035l.506-.718c.278-.407.84-1.122 1.607-1.122.561 0 1.162.295 1.686.827l-.938 1.695c-.411-.205-.674-.313-1.176-.313-.861 0-1.702.682-1.702 2.67v4.551h-2.495V7.469h2.477V9.09M201.092 9.2c-.56-.405-1.14-.588-1.592-.588-.56 0-1.122.312-1.122.939 0 .737.9 1.162 1.946 1.914 1.332.981 1.721 1.938 1.721 2.781 0 1.294-1.442 2.657-3.496 2.657-1.292 0-2.245-.444-3.122-1.051l.785-1.273c.558.445 1.361.884 2.033.884.716 0 1.349-.369 1.349-1.142 0-.866-.974-1.344-1.869-1.971-1.067-.717-1.794-1.418-1.794-2.558 0-1.458 1.418-2.542 3.25-2.542 1.033 0 2.04.256 2.718.848l-.807 1.102M208.178 11.78c-1.214.387-1.831 1.068-1.831 2.117 0 .812.524 1.365 1.127 1.365.987 0 2.279-1.217 2.094-3.924l-1.39.442zm.79 4.017c-.675.553-1.535 1.106-2.393 1.106-1.46 0-2.68-1.106-2.68-2.801 0-1.752 1.294-2.727 3.465-3.355l2.208-.645c-.13-.846-.9-1.379-1.7-1.379-1.07 0-1.819.387-2.473.94l-.807-1.161c1.163-.939 2.301-1.252 3.59-1.252 1.725 0 3.84.549 3.84 3.426v3.756c0 .738.091 1.606.393 2.248h-2.637c-.192-.314-.245-.846-.245-1.344l-.561.461zM214.805 16.68h2.49V3.141h-2.49zM239.328 11.78c-1.218.387-1.835 1.068-1.835 2.117 0 .812.521 1.365 1.123 1.365.987 0 2.28-1.217 2.098-3.924l-1.386.442zm.78 4.017c-.67.553-1.532 1.106-2.393 1.106-1.457 0-2.676-1.106-2.676-2.801 0-1.752 1.292-2.727 3.465-3.355l2.21-.645c-.137-.846-.9-1.379-1.71-1.379-1.063 0-1.813.387-2.467.94l-.805-1.161c1.16-.939 2.303-1.252 3.596-1.252 1.717 0 3.829.549 3.829 3.426v3.756c0 .738.093 1.606.391 2.248h-2.633c-.185-.314-.247-.846-.247-1.344l-.56.461zM248.415 8.557c.843-.883 2.023-1.307 3.2-1.307 2.188 0 3.347 1.176 3.347 3.497v5.933h-2.487v-5.654c0-1.291-.58-2.139-1.871-2.139-1.217 0-2.17.793-2.17 2.305v5.488h-2.487V7.469h2.468v1.088M226.37 15.129h1.346c1.46 0 2.567-.754 2.567-2.189 0-1.512-1.142-2.156-2.582-2.156h-1.331v4.345zm0-5.929h.827c1.517 0 2.547-.957 2.547-2.157 0-1.14-.865-1.636-2.005-1.636h-1.37V9.2zm-2.635 7.515V3.821h4.734c2.205 0 3.76.994 3.76 2.744 0 2.062-1.702 2.912-2.618 3.15v.037c1.628.075 3.44 1.178 3.44 3.149 0 2.228-1.891 3.814-4.973 3.814h-4.343z"/>
        </g>
        <path d="M125 0h1v24h-1z" opacity=".88"/>
    </g>
</svg>