<svg xmlns="http://www.w3.org/2000/svg" width="1441" height="1507" viewBox="0 0 1441 1507"><g opacity="0.5"><path d="M50.511-84.832H27.46A16.222,16.222,0,0,0,21.5-92.756a15.824,15.824,0,0,0-9.5-3.078,15.823,15.823,0,0,0-9.5,3.078,16.222,16.222,0,0,0-5.959,7.924H-26.5a10.609,10.609,0,0,0-7.793,3.209A10.609,10.609,0,0,0-37.5-73.831V3.179a10.609,10.609,0,0,0,3.209,7.793A10.609,10.609,0,0,0-26.5,14.18h77.01A10.609,10.609,0,0,0,58.3,10.972a10.609,10.609,0,0,0,3.209-7.793v-77.01A10.609,10.609,0,0,0,58.3-81.623,10.609,10.609,0,0,0,50.511-84.832Zm-38.5,0a5.284,5.284,0,0,1,3.864,1.637,5.284,5.284,0,0,1,1.637,3.864,5.284,5.284,0,0,1-1.637,3.864,5.284,5.284,0,0,1-3.864,1.637,5.284,5.284,0,0,1-3.864-1.637,5.284,5.284,0,0,1-1.637-3.864,5.284,5.284,0,0,1,1.637-3.864A5.284,5.284,0,0,1,12.006-84.832Zm5.5,77.01H-10A5.284,5.284,0,0,1-13.86-9.459,5.284,5.284,0,0,1-15.5-13.323a5.284,5.284,0,0,1,1.637-3.864A5.284,5.284,0,0,1-10-18.824h27.5a5.284,5.284,0,0,1,3.864,1.637,5.284,5.284,0,0,1,1.637,3.864A5.284,5.284,0,0,1,21.37-9.459,5.284,5.284,0,0,1,17.507-7.822Zm16.5-22H-10a5.284,5.284,0,0,1-3.864-1.637A5.284,5.284,0,0,1-15.5-35.326a5.284,5.284,0,0,1,1.637-3.864A5.284,5.284,0,0,1-10-40.826H34.009a5.284,5.284,0,0,1,3.864,1.637,5.284,5.284,0,0,1,1.637,3.864,5.284,5.284,0,0,1-1.637,3.864A5.284,5.284,0,0,1,34.009-29.825Zm0-22H-10a5.284,5.284,0,0,1-3.864-1.637A5.284,5.284,0,0,1-15.5-57.329a5.284,5.284,0,0,1,1.637-3.864A5.284,5.284,0,0,1-10-62.829H34.009a5.284,5.284,0,0,1,3.864,1.637,5.284,5.284,0,0,1,1.637,3.864,5.284,5.284,0,0,1-1.637,3.864A5.284,5.284,0,0,1,34.009-51.828Z" transform="matrix(0.978, -0.208, 0.208, 0.978, 332.262, 628.816)" fill="#fff" stroke="rgba(0,0,0,0)" stroke-width="1" opacity="0.21"/><path d="M-8.333-33.333V-66.667a8.036,8.036,0,0,1,2.431-5.9A8.036,8.036,0,0,1,0-75H37.5v-4.167a8.036,8.036,0,0,0-2.431-5.9,8.036,8.036,0,0,0-5.9-2.431H-29.167a8.036,8.036,0,0,0-5.9,2.431,8.036,8.036,0,0,0-2.431,5.9v58.333a8.036,8.036,0,0,0,2.431,5.9,8.036,8.036,0,0,0,5.9,2.431H29.167a8.036,8.036,0,0,0,5.9-2.431,8.036,8.036,0,0,0,2.431-5.9V-25H0a8.036,8.036,0,0,1-5.9-2.431A8.036,8.036,0,0,1-8.333-33.333Zm12.5-33.333a4,4,0,0,0-2.927,1.24A4,4,0,0,0,0-62.5v25a4,4,0,0,0,1.24,2.927,4,4,0,0,0,2.927,1.24h37.5V-66.667Zm12.5,22.917a6.019,6.019,0,0,1-4.415-1.835A6.019,6.019,0,0,1,10.417-50a6.019,6.019,0,0,1,1.835-4.415,6.019,6.019,0,0,1,4.415-1.835,6.019,6.019,0,0,1,4.415,1.835A6.019,6.019,0,0,1,22.917-50a6.019,6.019,0,0,1-1.835,4.415A6.019,6.019,0,0,1,16.667-43.75Z" transform="matrix(0.978, 0.208, -0.208, 0.978, 473.65, 480.474)" fill="#fff" stroke="rgba(0,0,0,0)" stroke-width="1" opacity="0.43"/><path d="M6.886-95.833H-23.158a5.8,5.8,0,0,0-4.256,1.753,5.8,5.8,0,0,0-1.753,4.256v54.08a5.8,5.8,0,0,0,1.753,4.256,5.8,5.8,0,0,0,4.256,1.753H6.886a5.8,5.8,0,0,0,4.256-1.753A5.8,5.8,0,0,0,12.9-35.745v-54.08a5.8,5.8,0,0,0-1.753-4.256A5.8,5.8,0,0,0,6.886-95.833Zm0,54.079H-23.158V-83.816H6.886Z" transform="translate(434.921 995.776) rotate(-31)" fill="#fff" stroke="rgba(0,0,0,0)" stroke-width="1" opacity="0.59"/><path d="M10.961-67.7a3.977,3.977,0,0,0,2.8.909,3.968,3.968,0,0,0,2.727-1.189,3.954,3.954,0,0,0,1.224-3.146,4.108,4.108,0,0,0-1.5-3.007,44.4,44.4,0,0,0-17.62-8.88,44.6,44.6,0,0,0-19.228-.7l7.551,7.621A37.1,37.1,0,0,1-.506-74.058,37.419,37.419,0,0,1,10.961-67.7ZM4.249-62.312a27.976,27.976,0,0,0-7.411-3.846l8.67,8.67a4.291,4.291,0,0,0,.245-2.692A3.353,3.353,0,0,0,4.249-62.312ZM-7.008-49.8a12.47,12.47,0,0,0-5.768-1.4,12.055,12.055,0,0,0-5.7,1.4,2.614,2.614,0,0,0-1.538,2.133,2.693,2.693,0,0,0,.839,2.482l4.335,4.335a2.8,2.8,0,0,0,2.063.839,2.8,2.8,0,0,0,2.063-.839l4.335-4.335A2.772,2.772,0,0,0-5.5-47.664,2.534,2.534,0,0,0-7.008-49.8ZM9.842-44.9-35.885-90.629a2.8,2.8,0,0,0-2.063-.839,2.747,2.747,0,0,0-2.063.874,2.88,2.88,0,0,0-.839,2.063,3,3,0,0,0,.839,2.1l6.852,6.852a47.018,47.018,0,0,0-8.46,5.454,3.915,3.915,0,0,0-1.538,3.007A4.064,4.064,0,0,0-41.9-67.975a4.074,4.074,0,0,0,2.692,1.224,3.655,3.655,0,0,0,2.762-.944,38.749,38.749,0,0,1,9.579-5.663l6.5,6.572a27.883,27.883,0,0,0-9.369,4.4A3.875,3.875,0,0,0-31.3-59.375a4.041,4.041,0,0,0,1.224,3.216h0a4.006,4.006,0,0,0,2.622,1.224,4.1,4.1,0,0,0,2.762-.8,20.625,20.625,0,0,1,11.676-3.776L5.647-40.847a3,3,0,0,0,2.1.839,2.946,2.946,0,0,0,2.063-.8,2.637,2.637,0,0,0,.874-2.028A2.8,2.8,0,0,0,9.842-44.9Z" transform="translate(572.113 791.164) rotate(-45)" fill="#fff" stroke="rgba(0,0,0,0)" stroke-width="1" opacity="0.15"/><path d="M-33.238-51.593v16.858a6.088,6.088,0,0,0,1.856,4.465,6.088,6.088,0,0,0,4.465,1.856,6.088,6.088,0,0,0,4.465-1.856,6.088,6.088,0,0,0,1.856-4.465V-51.593a6.088,6.088,0,0,0-1.856-4.465,6.088,6.088,0,0,0-4.465-1.856,6.088,6.088,0,0,0-4.465,1.856A6.088,6.088,0,0,0-33.238-51.593Zm25.287,0v16.858a6.088,6.088,0,0,0,1.856,4.465,6.088,6.088,0,0,0,4.465,1.856,6.088,6.088,0,0,0,4.465-1.856,6.088,6.088,0,0,0,1.856-4.465V-51.593a6.088,6.088,0,0,0-1.856-4.465,6.088,6.088,0,0,0-4.465-1.856,6.088,6.088,0,0,0-4.465,1.856A6.088,6.088,0,0,0-7.95-51.593ZM-35.345-7.34H32.088A6.088,6.088,0,0,0,36.554-9.2a6.088,6.088,0,0,0,1.856-4.465,6.088,6.088,0,0,0-1.856-4.465,6.088,6.088,0,0,0-4.465-1.856H-35.345a6.088,6.088,0,0,0-4.465,1.856,6.088,6.088,0,0,0-1.856,4.465A6.088,6.088,0,0,0-39.81-9.2,6.088,6.088,0,0,0-35.345-7.34ZM17.337-51.593v16.858a6.088,6.088,0,0,0,1.856,4.465,6.088,6.088,0,0,0,4.465,1.856,6.088,6.088,0,0,0,4.465-1.856,6.088,6.088,0,0,0,1.856-4.465V-51.593a6.088,6.088,0,0,0-1.856-4.465,6.088,6.088,0,0,0-4.465-1.856,6.088,6.088,0,0,0-4.465,1.856A6.088,6.088,0,0,0,17.337-51.593ZM-5.542-93.739l-33.315,17.46a5.263,5.263,0,0,0-2.057,1.957,5.263,5.263,0,0,0-.753,2.76A5.011,5.011,0,0,0-40.111-67.9a5.011,5.011,0,0,0,3.663,1.555H33.192A5.011,5.011,0,0,0,36.855-67.9a5.011,5.011,0,0,0,1.555-3.663,5.263,5.263,0,0,0-.753-2.76A5.263,5.263,0,0,0,35.6-76.278L2.285-93.739a7.927,7.927,0,0,0-3.914-1A7.927,7.927,0,0,0-5.542-93.739Z" transform="translate(966.906 956.461) rotate(16)" fill="#fff" stroke="rgba(0,0,0,0)" stroke-width="1" opacity="0.15"/><path d="M33.631-57.738a5.642,5.642,0,0,0,3.968,1.29,5.631,5.631,0,0,0,3.869-1.687A5.611,5.611,0,0,0,43.2-62.6a5.828,5.828,0,0,0-2.133-4.266,62.991,62.991,0,0,0-25-12.6,63.276,63.276,0,0,0-27.282-.992L-.5-69.643a52.637,52.637,0,0,1,17.857,2.877A53.093,53.093,0,0,1,33.631-57.738ZM24.107-50.1a39.7,39.7,0,0,0-10.516-5.456l12.3,12.3a6.088,6.088,0,0,0,.347-3.819A4.758,4.758,0,0,0,24.107-50.1ZM8.135-32.341A17.693,17.693,0,0,0-.05-34.325a17.1,17.1,0,0,0-8.085,1.984,3.709,3.709,0,0,0-2.183,3.026,3.821,3.821,0,0,0,1.19,3.522l6.151,6.151A3.978,3.978,0,0,0-.05-18.452a3.978,3.978,0,0,0,2.927-1.19l6.151-6.151a3.933,3.933,0,0,0,1.24-3.522A3.6,3.6,0,0,0,8.135-32.341ZM32.044-25.4-32.837-90.278a3.978,3.978,0,0,0-2.927-1.19,3.9,3.9,0,0,0-2.927,1.24,4.086,4.086,0,0,0-1.19,2.927,4.257,4.257,0,0,0,1.19,2.976l9.722,9.722a66.713,66.713,0,0,0-12,7.738A5.554,5.554,0,0,0-43.155-62.6a5.766,5.766,0,0,0,1.786,4.464A5.78,5.78,0,0,0-37.55-56.4a5.185,5.185,0,0,0,3.919-1.339A54.98,54.98,0,0,1-20.04-65.774l9.226,9.325A39.563,39.563,0,0,0-24.107-50.2a5.5,5.5,0,0,0-2.232,4.266A5.733,5.733,0,0,0-24.6-41.369h0a5.683,5.683,0,0,0,3.72,1.736,5.819,5.819,0,0,0,3.919-1.141A29.265,29.265,0,0,1-.4-46.131L26.091-19.643a4.257,4.257,0,0,0,2.976,1.19,4.18,4.18,0,0,0,2.927-1.141,3.742,3.742,0,0,0,1.24-2.877A3.978,3.978,0,0,0,32.044-25.4Z" transform="translate(699.933 577.59) rotate(17)" fill="#fff" stroke="rgba(0,0,0,0)" stroke-width="1" opacity="0.12"/><path d="M-11.752-.784A10.956,10.956,0,0,0-19.8,2.53a10.956,10.956,0,0,0-3.313,8.047A10.955,10.955,0,0,0-19.8,18.623a10.955,10.955,0,0,0,8.047,3.313,10.956,10.956,0,0,0,8.047-3.313A10.956,10.956,0,0,0-.392,10.576,10.956,10.956,0,0,0-3.705,2.53,10.956,10.956,0,0,0-11.752-.784Zm-34.081-85.2A5.456,5.456,0,0,0-44.143-82a5.456,5.456,0,0,0,3.99,1.691h5.68l20.422,43.142-7.574,13.795a11.124,11.124,0,0,0-1.217,7.709A11.561,11.561,0,0,0-18.988-9.1a10.685,10.685,0,0,0,7.235,2.637H50.73a5.456,5.456,0,0,0,3.99-1.691,5.456,5.456,0,0,0,1.691-3.99,5.456,5.456,0,0,0-1.691-3.99,5.456,5.456,0,0,0-3.99-1.691H-11.752l6.221-11.36H36.8a11.474,11.474,0,0,0,5.815-1.555A10.881,10.881,0,0,0,46.808-35L67.094-71.921a5.082,5.082,0,0,0,.676-3.787,5.589,5.589,0,0,0-1.961-3.313,5.653,5.653,0,0,0-3.719-1.285H-21.9l-3.787-8.115a5.324,5.324,0,0,0-2.1-2.367,5.681,5.681,0,0,0-3.043-.879h-9.332a5.456,5.456,0,0,0-3.99,1.691A5.456,5.456,0,0,0-45.833-85.986ZM45.049-.784A10.956,10.956,0,0,0,37,2.53a10.955,10.955,0,0,0-3.313,8.047A10.956,10.956,0,0,0,37,18.623a11.428,11.428,0,0,0,16.094,0,10.956,10.956,0,0,0,3.313-8.047A10.956,10.956,0,0,0,53.1,2.53,10.956,10.956,0,0,0,45.049-.784Z" transform="translate(1096.312 513.023) rotate(-30)" fill="#fff" stroke="rgba(0,0,0,0)" stroke-width="1" opacity="0.25"/><path d="M30.992-87.272H13.054a12.624,12.624,0,0,0-4.637-6.166,12.314,12.314,0,0,0-7.389-2.4,12.314,12.314,0,0,0-7.389,2.4A12.624,12.624,0,0,0-11-87.272H-28.939A8.256,8.256,0,0,0-35-84.775a8.256,8.256,0,0,0-2.5,6.064v59.93A8.256,8.256,0,0,0-35-12.715a8.256,8.256,0,0,0,6.064,2.5h59.93a8.256,8.256,0,0,0,6.064-2.5,8.256,8.256,0,0,0,2.5-6.064V-78.71a8.256,8.256,0,0,0-2.5-6.064A8.256,8.256,0,0,0,30.992-87.272Zm-29.965,0A4.112,4.112,0,0,1,4.033-86a4.112,4.112,0,0,1,1.274,3.007,4.112,4.112,0,0,1-1.274,3.007A4.112,4.112,0,0,1,1.027-78.71,4.112,4.112,0,0,1-1.98-79.984a4.112,4.112,0,0,1-1.274-3.007A4.112,4.112,0,0,1-1.98-86,4.112,4.112,0,0,1,1.027-87.272Zm4.281,59.93H-16.1A4.112,4.112,0,0,1-19.1-28.615a4.112,4.112,0,0,1-1.274-3.007A4.112,4.112,0,0,1-19.1-34.629,4.112,4.112,0,0,1-16.1-35.9h21.4a4.112,4.112,0,0,1,3.007,1.274,4.112,4.112,0,0,1,1.274,3.007,4.112,4.112,0,0,1-1.274,3.007A4.112,4.112,0,0,1,5.307-27.341ZM18.15-44.464H-16.1A4.112,4.112,0,0,1-19.1-45.738a4.112,4.112,0,0,1-1.274-3.007A4.112,4.112,0,0,1-19.1-51.752,4.112,4.112,0,0,1-16.1-53.026H18.15a4.112,4.112,0,0,1,3.007,1.274,4.112,4.112,0,0,1,1.274,3.007,4.112,4.112,0,0,1-1.274,3.007A4.112,4.112,0,0,1,18.15-44.464Zm0-17.123H-16.1A4.112,4.112,0,0,1-19.1-62.861a4.112,4.112,0,0,1-1.274-3.007A4.112,4.112,0,0,1-19.1-68.875,4.112,4.112,0,0,1-16.1-70.149H18.15a4.112,4.112,0,0,1,3.007,1.274,4.112,4.112,0,0,1,1.274,3.007,4.112,4.112,0,0,1-1.274,3.007A4.112,4.112,0,0,1,18.15-61.587Z" transform="matrix(0.829, 0.559, -0.559, 0.829, 608.295, 1098.025)" fill="#fff" stroke="rgba(0,0,0,0)" stroke-width="1" opacity="0.19"/><path d="M-35.73-64.35v11.874a4.288,4.288,0,0,0,1.308,3.145,4.288,4.288,0,0,0,3.145,1.308,4.288,4.288,0,0,0,3.145-1.308,4.288,4.288,0,0,0,1.308-3.145V-64.35A4.288,4.288,0,0,0-28.132-67.5,4.288,4.288,0,0,0-31.277-68.8,4.288,4.288,0,0,0-34.422-67.5,4.288,4.288,0,0,0-35.73-64.35Zm17.811,0v11.874a4.288,4.288,0,0,0,1.308,3.145,4.288,4.288,0,0,0,3.145,1.308A4.288,4.288,0,0,0-10.32-49.33a4.288,4.288,0,0,0,1.308-3.145V-64.35A4.288,4.288,0,0,0-10.32-67.5,4.288,4.288,0,0,0-13.466-68.8,4.288,4.288,0,0,0-16.611-67.5,4.288,4.288,0,0,0-17.918-64.35Zm-19.3,31.17h47.5a4.288,4.288,0,0,0,3.145-1.308,4.288,4.288,0,0,0,1.308-3.145,4.288,4.288,0,0,0-1.308-3.145,4.288,4.288,0,0,0-3.145-1.308h-47.5a4.288,4.288,0,0,0-3.145,1.308,4.288,4.288,0,0,0-1.308,3.145,4.288,4.288,0,0,0,1.308,3.145A4.288,4.288,0,0,0-37.214-33.18ZM-.107-64.35v11.874A4.288,4.288,0,0,0,1.2-49.33a4.288,4.288,0,0,0,3.145,1.308A4.288,4.288,0,0,0,7.491-49.33,4.288,4.288,0,0,0,8.8-52.476V-64.35A4.288,4.288,0,0,0,7.491-67.5,4.288,4.288,0,0,0,4.346-68.8,4.288,4.288,0,0,0,1.2-67.5,4.288,4.288,0,0,0-.107-64.35ZM-16.222-94.035l-23.466,12.3a3.707,3.707,0,0,0-1.449,1.378,3.707,3.707,0,0,0-.53,1.944,3.53,3.53,0,0,0,1.1,2.58,3.53,3.53,0,0,0,2.58,1.1H11.06a3.53,3.53,0,0,0,2.58-1.1,3.53,3.53,0,0,0,1.1-2.58,3.707,3.707,0,0,0-.53-1.944,3.707,3.707,0,0,0-1.449-1.378l-23.466-12.3a5.584,5.584,0,0,0-2.757-.707A5.584,5.584,0,0,0-16.222-94.035Z" transform="translate(886.172 462.717) rotate(-4)" fill="#fff" stroke="rgba(0,0,0,0)" stroke-width="1" opacity="0.51"/><g transform="translate(868.328 1024)" opacity="0.4"><path d="M69.475,6,80.512,17.037l-23.52,23.52L37.714,21.278,2,57.04l6.8,6.8L37.714,34.918,56.992,54.2,87.356,23.881,98.393,34.918V6Z" transform="translate(7.639 22.918)" fill="#fff"/><path d="M0,0H115.672V115.672H0Z" fill="none"/></g><path d="M18.667-88.812H3.957a10.353,10.353,0,0,0-3.8-5.057,10.1,10.1,0,0,0-6.06-1.964,10.1,10.1,0,0,0-6.06,1.964,10.352,10.352,0,0,0-3.8,5.057h-14.71a6.771,6.771,0,0,0-4.973,2.048A6.771,6.771,0,0,0-37.5-81.792v49.146a6.771,6.771,0,0,0,2.048,4.973,6.771,6.771,0,0,0,4.973,2.048H18.667a6.771,6.771,0,0,0,4.973-2.048,6.771,6.771,0,0,0,2.048-4.973V-81.792a6.771,6.771,0,0,0-2.048-4.973A6.771,6.771,0,0,0,18.667-88.812Zm-24.573,0A3.372,3.372,0,0,1-3.44-87.768,3.372,3.372,0,0,1-2.4-85.3,3.372,3.372,0,0,1-3.44-82.836a3.372,3.372,0,0,1-2.466,1.045,3.372,3.372,0,0,1-2.466-1.045A3.372,3.372,0,0,1-9.416-85.3a3.372,3.372,0,0,1,1.045-2.466A3.372,3.372,0,0,1-5.906-88.812ZM-2.4-39.666H-19.948a3.372,3.372,0,0,1-2.466-1.045,3.372,3.372,0,0,1-1.045-2.466,3.372,3.372,0,0,1,1.045-2.466,3.372,3.372,0,0,1,2.466-1.045H-2.4A3.372,3.372,0,0,1,.07-45.642a3.372,3.372,0,0,1,1.045,2.466A3.372,3.372,0,0,1,.07-40.711,3.372,3.372,0,0,1-2.4-39.666ZM8.136-53.708H-19.948a3.372,3.372,0,0,1-2.466-1.045,3.372,3.372,0,0,1-1.045-2.466,3.372,3.372,0,0,1,1.045-2.466,3.372,3.372,0,0,1,2.466-1.045H8.136A3.372,3.372,0,0,1,10.6-59.684a3.372,3.372,0,0,1,1.045,2.466A3.372,3.372,0,0,1,10.6-54.753,3.372,3.372,0,0,1,8.136-53.708Zm0-14.042H-19.948a3.372,3.372,0,0,1-2.466-1.045,3.372,3.372,0,0,1-1.045-2.466,3.372,3.372,0,0,1,1.045-2.466,3.372,3.372,0,0,1,2.466-1.045H8.136A3.372,3.372,0,0,1,10.6-73.726a3.372,3.372,0,0,1,1.045,2.466A3.372,3.372,0,0,1,10.6-68.795,3.372,3.372,0,0,1,8.136-67.75Z" transform="translate(949.285 776.037) rotate(39)" fill="#fff" stroke="rgba(0,0,0,0)" stroke-width="1" opacity="0.13"/><path d="M6.886-95.833H-23.158a5.8,5.8,0,0,0-4.256,1.753,5.8,5.8,0,0,0-1.753,4.256v54.08a5.8,5.8,0,0,0,1.753,4.256,5.8,5.8,0,0,0,4.256,1.753H6.886a5.8,5.8,0,0,0,4.256-1.753A5.8,5.8,0,0,0,12.9-35.745v-54.08a5.8,5.8,0,0,0-1.753-4.256A5.8,5.8,0,0,0,6.886-95.833Zm0,54.079H-23.158V-83.816H6.886Z" transform="matrix(0.829, 0.559, -0.559, 0.829, 703.247, 829.75)" fill="#fff" stroke="rgba(0,0,0,0)" stroke-width="1" opacity="0.08"/><path d="M6.886-95.833H-23.158a5.8,5.8,0,0,0-4.256,1.753,5.8,5.8,0,0,0-1.753,4.256v54.08a5.8,5.8,0,0,0,1.753,4.256,5.8,5.8,0,0,0,4.256,1.753H6.886a5.8,5.8,0,0,0,4.256-1.753A5.8,5.8,0,0,0,12.9-35.745v-54.08a5.8,5.8,0,0,0-1.753-4.256A5.8,5.8,0,0,0,6.886-95.833Zm0,54.079H-23.158V-83.816H6.886Z" transform="matrix(0.995, 0.105, -0.105, 0.995, 1183.139, 1082.44)" fill="#fff" stroke="rgba(0,0,0,0)" stroke-width="1" opacity="0.09"/><path d="M-16.888-49.22V-72.777a5.679,5.679,0,0,1,1.718-4.172A5.679,5.679,0,0,1-11-78.666H15.5v-2.945a5.679,5.679,0,0,0-1.718-4.172A5.679,5.679,0,0,0,9.614-87.5H-31.611a5.679,5.679,0,0,0-4.172,1.718A5.679,5.679,0,0,0-37.5-81.611v41.224a5.679,5.679,0,0,0,1.718,4.172A5.679,5.679,0,0,0-31.611-34.5H9.614a5.679,5.679,0,0,0,4.172-1.718A5.679,5.679,0,0,0,15.5-40.386v-2.945H-11a5.679,5.679,0,0,1-4.172-1.718A5.679,5.679,0,0,1-16.888-49.22Zm8.834-23.557a2.829,2.829,0,0,0-2.068.876A2.829,2.829,0,0,0-11-69.832v17.668a2.829,2.829,0,0,0,.876,2.068,2.829,2.829,0,0,0,2.068.876h26.5V-72.777ZM.78-56.582a4.253,4.253,0,0,1-3.12-1.3A4.253,4.253,0,0,1-3.637-61a4.253,4.253,0,0,1,1.3-3.12,4.254,4.254,0,0,1,3.12-1.3,4.253,4.253,0,0,1,3.12,1.3A4.254,4.254,0,0,1,5.2-61a4.253,4.253,0,0,1-1.3,3.12A4.253,4.253,0,0,1,.78-56.582Z" transform="translate(1211.046 878.756) rotate(-20)" fill="#fff" stroke="rgba(0,0,0,0)" stroke-width="1" opacity="0.43"/><path d="M-22.705-29.992a7.435,7.435,0,0,0-5.461,2.249,7.435,7.435,0,0,0-2.249,5.461,7.435,7.435,0,0,0,2.249,5.461,7.435,7.435,0,0,0,5.461,2.249,7.435,7.435,0,0,0,5.461-2.249A7.435,7.435,0,0,0-15-22.283a7.435,7.435,0,0,0-2.249-5.461A7.435,7.435,0,0,0-22.705-29.992Zm-23.128-57.82A3.7,3.7,0,0,0-44.686-85.1a3.7,3.7,0,0,0,2.707,1.147h3.855L-24.266-54.68l-5.14,9.361a7.549,7.549,0,0,0-.826,5.231,7.846,7.846,0,0,0,2.616,4.451,7.251,7.251,0,0,0,4.91,1.79H19.7A3.7,3.7,0,0,0,22.4-34.994,3.7,3.7,0,0,0,23.551-37.7,3.7,3.7,0,0,0,22.4-40.409,3.7,3.7,0,0,0,19.7-41.556h-42.4l4.222-7.709H10.243a7.786,7.786,0,0,0,3.946-1.055,7.384,7.384,0,0,0,2.845-2.891L30.8-78.267a3.449,3.449,0,0,0,.459-2.57,3.793,3.793,0,0,0-1.331-2.249,3.836,3.836,0,0,0-2.524-.872H-29.589l-2.57-5.507a3.613,3.613,0,0,0-1.423-1.606,3.855,3.855,0,0,0-2.065-.6h-6.333a3.7,3.7,0,0,0-2.707,1.147A3.7,3.7,0,0,0-45.833-87.812Zm61.675,57.82a7.435,7.435,0,0,0-5.461,2.249,7.435,7.435,0,0,0-2.249,5.461,7.435,7.435,0,0,0,2.249,5.461,7.435,7.435,0,0,0,5.461,2.249A7.435,7.435,0,0,0,21.3-16.822a7.435,7.435,0,0,0,2.249-5.461A7.435,7.435,0,0,0,21.3-27.744,7.435,7.435,0,0,0,15.841-29.992Z" transform="matrix(0.899, 0.438, -0.438, 0.899, 226.703, 1184.566)" fill="#fff" stroke="rgba(0,0,0,0)" stroke-width="1" opacity="0.18"/><path d="M46.37-93.156v-6.3a1.708,1.708,0,0,0-.5-1.259,1.658,1.658,0,0,0-1.217-.5,1.953,1.953,0,0,0-1.3.5L33.527-90.89a1.805,1.805,0,0,0-.588,1.3,1.549,1.549,0,0,0,.588,1.217l9.821,9.821a1.626,1.626,0,0,0,1.931.378A1.647,1.647,0,0,0,46.37-79.81v-6.3a20.547,20.547,0,0,1,10.576,2.854,21.288,21.288,0,0,1,7.722,7.722,20.547,20.547,0,0,1,2.854,10.576,20.231,20.231,0,0,1-1.511,7.89,3.241,3.241,0,0,0-.21,1.973,3.435,3.435,0,0,0,.965,1.721A3.377,3.377,0,0,0,70-52.4a3.251,3.251,0,0,0,2.56-2.14,27.361,27.361,0,0,0,2.015-10.408,27.882,27.882,0,0,0-3.861-14.27A27.184,27.184,0,0,0,60.64-89.295,27.882,27.882,0,0,0,46.37-93.156Zm0,49.356a20.547,20.547,0,0,1-10.576-2.854,21.288,21.288,0,0,1-7.722-7.722,20.547,20.547,0,0,1-2.854-10.576,20.231,20.231,0,0,1,1.511-7.89,3.241,3.241,0,0,0,.21-1.973,3.435,3.435,0,0,0-.965-1.721,3.377,3.377,0,0,0-3.232-.965,3.251,3.251,0,0,0-2.56,2.14,27.36,27.36,0,0,0-2.015,10.408,27.882,27.882,0,0,0,3.861,14.27A27.184,27.184,0,0,0,32.1-40.61a27.882,27.882,0,0,0,14.27,3.861v6.3a1.708,1.708,0,0,0,.5,1.259,1.658,1.658,0,0,0,1.217.5,1.953,1.953,0,0,0,1.3-.5l9.821-9.821a1.953,1.953,0,0,0,.5-1.3,1.658,1.658,0,0,0-.5-1.217l-9.821-9.821a1.626,1.626,0,0,0-1.931-.378A1.647,1.647,0,0,0,46.37-50.1Z" transform="matrix(0.848, -0.53, 0.53, 0.848, 906.726, 665.703)" fill="#fff" stroke="rgba(0,0,0,0)" stroke-width="1" opacity="0.3"/><path d="M90.25-99.75H23.75a9.162,9.162,0,0,0-6.729,2.771A9.161,9.161,0,0,0,14.25-90.25v66.5a9.161,9.161,0,0,0,2.771,6.729A9.161,9.161,0,0,0,23.75-14.25h66.5a9.161,9.161,0,0,0,6.729-2.771A9.161,9.161,0,0,0,99.75-23.75v-66.5a9.162,9.162,0,0,0-2.771-6.729A9.162,9.162,0,0,0,90.25-99.75ZM38-33.25a4.563,4.563,0,0,1-3.336-1.414A4.563,4.563,0,0,1,33.25-38V-61.75a4.563,4.563,0,0,1,1.414-3.336A4.563,4.563,0,0,1,38-66.5a4.563,4.563,0,0,1,3.336,1.414A4.563,4.563,0,0,1,42.75-61.75V-38a4.563,4.563,0,0,1-1.414,3.336A4.563,4.563,0,0,1,38-33.25Zm19,0a4.563,4.563,0,0,1-3.336-1.414A4.563,4.563,0,0,1,52.25-38V-76a4.563,4.563,0,0,1,1.414-3.336A4.563,4.563,0,0,1,57-80.75a4.563,4.563,0,0,1,3.336,1.414A4.563,4.563,0,0,1,61.75-76v38a4.563,4.563,0,0,1-1.414,3.336A4.563,4.563,0,0,1,57-33.25Zm19,0a4.563,4.563,0,0,1-3.336-1.414A4.563,4.563,0,0,1,71.25-38v-9.5a4.563,4.563,0,0,1,1.414-3.336A4.563,4.563,0,0,1,76-52.25a4.563,4.563,0,0,1,3.336,1.414A4.563,4.563,0,0,1,80.75-47.5V-38a4.563,4.563,0,0,1-1.414,3.336A4.563,4.563,0,0,1,76-33.25Z" transform="matrix(0.966, 0.259, -0.259, 0.966, 1136.19, 690.305)" fill="#fff" stroke="rgba(0,0,0,0)" stroke-width="1" opacity="0.14"/><path d="M25.417-91.5H96.583a4.883,4.883,0,0,0,3.57-1.513,4.883,4.883,0,0,0,1.513-3.57,4.883,4.883,0,0,0-1.513-3.57,4.883,4.883,0,0,0-3.57-1.513H25.417a4.883,4.883,0,0,0-3.57,1.513,4.883,4.883,0,0,0-1.513,3.57,4.883,4.883,0,0,0,1.513,3.57A4.883,4.883,0,0,0,25.417-91.5Zm77.1,9.2a5,5,0,0,0-1.755-2.965,4.89,4.89,0,0,0-3.207-1.15h-73.1a4.89,4.89,0,0,0-3.207,1.15A5,5,0,0,0,19.486-82.3L14.4-56.885a4.7,4.7,0,0,0,1.089,4.176,4.868,4.868,0,0,0,3.873,1.876h.968v25.417a4.883,4.883,0,0,0,1.513,3.57,4.883,4.883,0,0,0,3.57,1.513H66.083a4.883,4.883,0,0,0,3.57-1.513,4.883,4.883,0,0,0,1.513-3.57V-50.833H91.5v25.417a4.883,4.883,0,0,0,1.513,3.57,4.883,4.883,0,0,0,3.57,1.513,4.883,4.883,0,0,0,3.57-1.513,4.883,4.883,0,0,0,1.513-3.57V-50.833h.968a4.868,4.868,0,0,0,3.873-1.876,4.7,4.7,0,0,0,1.089-4.176ZM61-30.5H30.5V-50.833H61Z" transform="translate(405.481 1275.24) rotate(11)" fill="#fff" stroke="rgba(0,0,0,0)" stroke-width="1" opacity="0.13"/><path d="M90.25-99.75H23.75a9.162,9.162,0,0,0-6.729,2.771A9.161,9.161,0,0,0,14.25-90.25v66.5a9.161,9.161,0,0,0,2.771,6.729A9.161,9.161,0,0,0,23.75-14.25h66.5a9.161,9.161,0,0,0,6.729-2.771A9.161,9.161,0,0,0,99.75-23.75v-66.5a9.162,9.162,0,0,0-2.771-6.729A9.162,9.162,0,0,0,90.25-99.75ZM38-33.25a4.563,4.563,0,0,1-3.336-1.414A4.563,4.563,0,0,1,33.25-38V-61.75a4.563,4.563,0,0,1,1.414-3.336A4.563,4.563,0,0,1,38-66.5a4.563,4.563,0,0,1,3.336,1.414A4.563,4.563,0,0,1,42.75-61.75V-38a4.563,4.563,0,0,1-1.414,3.336A4.563,4.563,0,0,1,38-33.25Zm19,0a4.563,4.563,0,0,1-3.336-1.414A4.563,4.563,0,0,1,52.25-38V-76a4.563,4.563,0,0,1,1.414-3.336A4.563,4.563,0,0,1,57-80.75a4.563,4.563,0,0,1,3.336,1.414A4.563,4.563,0,0,1,61.75-76v38a4.563,4.563,0,0,1-1.414,3.336A4.563,4.563,0,0,1,57-33.25Zm19,0a4.563,4.563,0,0,1-3.336-1.414A4.563,4.563,0,0,1,71.25-38v-9.5a4.563,4.563,0,0,1,1.414-3.336A4.563,4.563,0,0,1,76-52.25a4.563,4.563,0,0,1,3.336,1.414A4.563,4.563,0,0,1,80.75-47.5V-38a4.563,4.563,0,0,1-1.414,3.336A4.563,4.563,0,0,1,76-33.25Z" transform="translate(160.503 951.202) rotate(-22)" fill="#fff" stroke="rgba(0,0,0,0)" stroke-width="1" opacity="0.14"/><path d="M21.965-94.654h49.09A3.368,3.368,0,0,0,73.518-95.7a3.368,3.368,0,0,0,1.044-2.463,3.368,3.368,0,0,0-1.044-2.463,3.368,3.368,0,0,0-2.463-1.044H21.965a3.368,3.368,0,0,0-2.463,1.044,3.368,3.368,0,0,0-1.044,2.463A3.368,3.368,0,0,0,19.5-95.7,3.368,3.368,0,0,0,21.965-94.654Zm53.181,6.345a3.45,3.45,0,0,0-1.211-2.045,3.373,3.373,0,0,0-2.212-.793H21.3a3.373,3.373,0,0,0-2.212.793,3.45,3.45,0,0,0-1.211,2.045L14.367-70.777a3.242,3.242,0,0,0,.751,2.88A3.358,3.358,0,0,0,17.79-66.6h.668V-49.07A3.368,3.368,0,0,0,19.5-46.607a3.368,3.368,0,0,0,2.463,1.044H50.016a3.368,3.368,0,0,0,2.463-1.044,3.368,3.368,0,0,0,1.044-2.463V-66.6H67.548V-49.07a3.368,3.368,0,0,0,1.044,2.463,3.368,3.368,0,0,0,2.463,1.044,3.368,3.368,0,0,0,2.463-1.044,3.368,3.368,0,0,0,1.044-2.463V-66.6h.668A3.358,3.358,0,0,0,77.9-67.9a3.242,3.242,0,0,0,.751-2.88ZM46.51-52.577H25.471V-66.6H46.51Z" transform="matrix(0.891, -0.454, 0.454, 0.891, 631.164, 433.888)" fill="#fff" stroke="rgba(0,0,0,0)" stroke-width="1" opacity="0.15"/><path d="M40-73.333A32.892,32.892,0,0,0,23.175-68.81,33.357,33.357,0,0,0,11.19-56.825,32.892,32.892,0,0,0,6.667-40,32.892,32.892,0,0,0,11.19-23.175,33.357,33.357,0,0,0,23.175-11.19,32.892,32.892,0,0,0,40-6.667,32.892,32.892,0,0,0,56.825-11.19,33.357,33.357,0,0,0,68.81-23.175,32.892,32.892,0,0,0,73.333-40,32.892,32.892,0,0,0,68.81-56.825,33.357,33.357,0,0,0,56.825-68.81,32.892,32.892,0,0,0,40-73.333Zm10.714,51.27L40-28.492,29.286-22.063a1.492,1.492,0,0,1-1.865-.04,1.551,1.551,0,0,1-.675-1.706L29.6-36.032l-9.444-8.175a1.611,1.611,0,0,1-.476-1.786,1.483,1.483,0,0,1,1.429-1.151l12.46-1.032,4.921-11.508A1.487,1.487,0,0,1,40-60.714a1.487,1.487,0,0,1,1.508,1.032l4.921,11.429,12.46,1.111a1.483,1.483,0,0,1,1.429,1.151,1.562,1.562,0,0,1-.556,1.786L50.4-36.032,53.175-23.81A1.567,1.567,0,0,1,52.54-22.1,1.435,1.435,0,0,1,50.714-22.063Z" transform="translate(1090.023 1274.973) rotate(-13)" fill="#fff" stroke="rgba(0,0,0,0)" stroke-width="1" opacity="0.11"/><g transform="translate(243.328 303)" opacity="0.4"><path d="M42.665,6l6.652,6.652L35.142,26.826,23.524,15.208,2,36.76l4.1,4.1L23.524,23.428,35.142,35.047l18.3-18.27,6.652,6.652V6Z" transform="translate(3.809 11.428)" fill="#fff"/><path d="M0,0H69.712V69.712H0Z" fill="none"/></g><path d="M-11.605-39.41V-69a7.135,7.135,0,0,1,2.158-5.241A7.135,7.135,0,0,1-4.207-76.4H29.086v-3.7a7.135,7.135,0,0,0-2.158-5.241A7.135,7.135,0,0,0,21.688-87.5H-30.1a7.135,7.135,0,0,0-5.241,2.158A7.135,7.135,0,0,0-37.5-80.1v51.789a7.135,7.135,0,0,0,2.158,5.241A7.135,7.135,0,0,0-30.1-20.914H21.688a7.135,7.135,0,0,0,5.241-2.158,7.135,7.135,0,0,0,2.158-5.241v-3.7H-4.207a7.135,7.135,0,0,1-5.241-2.158A7.135,7.135,0,0,1-11.605-39.41ZM-.508-69a3.554,3.554,0,0,0-2.6,1.1,3.554,3.554,0,0,0-1.1,2.6v22.2a3.554,3.554,0,0,0,1.1,2.6,3.554,3.554,0,0,0,2.6,1.1H32.785V-69Zm11.1,20.346a5.344,5.344,0,0,1-3.919-1.629,5.344,5.344,0,0,1-1.629-3.919,5.344,5.344,0,0,1,1.629-3.919,5.344,5.344,0,0,1,3.919-1.629,5.344,5.344,0,0,1,3.919,1.629,5.344,5.344,0,0,1,1.629,3.919,5.344,5.344,0,0,1-1.629,3.919A5.344,5.344,0,0,1,10.59-48.658Z" transform="matrix(0.999, 0.052, -0.052, 0.999, 787.808, 1344.88)" fill="#fff" stroke="rgba(0,0,0,0)" stroke-width="1" opacity="0.17"/><path d="M19.736-95.833H-21.016a7.86,7.86,0,0,0-5.773,2.377,7.86,7.86,0,0,0-2.377,5.773v73.354a7.86,7.86,0,0,0,2.377,5.773,7.86,7.86,0,0,0,5.773,2.377H19.736a7.86,7.86,0,0,0,5.773-2.377,7.86,7.86,0,0,0,2.377-5.773V-87.683a7.86,7.86,0,0,0-2.377-5.773A7.86,7.86,0,0,0,19.736-95.833Zm0,73.354H-21.016V-79.532H19.736Z" transform="translate(825.921 245.776) rotate(-31)" fill="#fff" stroke="rgba(0,0,0,0)" stroke-width="1" opacity="0.18"/><path d="M119.756-62.23H94.9V-74.657a11.984,11.984,0,0,0-3.624-8.8,11.984,11.984,0,0,0-8.8-3.624H57.623a11.984,11.984,0,0,0-8.8,3.624,11.984,11.984,0,0,0-3.624,8.8V-62.23H20.343a11.984,11.984,0,0,0-8.8,3.624,11.984,11.984,0,0,0-3.624,8.8V18.543a11.984,11.984,0,0,0,3.624,8.8,11.984,11.984,0,0,0,8.8,3.624h99.413a11.984,11.984,0,0,0,8.8-3.624,11.984,11.984,0,0,0,3.624-8.8V-49.8a11.984,11.984,0,0,0-3.624-8.8A11.984,11.984,0,0,0,119.756-62.23Zm-37.28,0H57.623V-74.657H82.477Z" transform="translate(983.423 200.691) rotate(21)" fill="#fff" stroke="rgba(0,0,0,0)" stroke-width="1" opacity="0.08"/><path d="M71.213-73.017H57.147V-80.05A6.782,6.782,0,0,0,55.1-85.032a6.782,6.782,0,0,0-4.982-2.051H36.049a6.782,6.782,0,0,0-4.982,2.051,6.782,6.782,0,0,0-2.051,4.982v7.033H14.95a6.782,6.782,0,0,0-4.982,2.051,6.782,6.782,0,0,0-2.051,4.982V-27.3a6.782,6.782,0,0,0,2.051,4.982A6.782,6.782,0,0,0,14.95-20.27H71.213a6.782,6.782,0,0,0,4.982-2.051A6.782,6.782,0,0,0,78.246-27.3V-65.984a6.782,6.782,0,0,0-2.051-4.982A6.782,6.782,0,0,0,71.213-73.017Zm-21.1,0H36.049V-80.05H50.114Z" transform="matrix(0.961, -0.276, 0.276, 0.961, 251.617, 1371.82)" fill="#fff" stroke="rgba(0,0,0,0)" stroke-width="1" opacity="0.27"/><path d="M31.96-57.158v-5.109a4.927,4.927,0,0,0-1.49-3.619,4.927,4.927,0,0,0-3.619-1.49H11.525a4.927,4.927,0,0,0-3.619,1.49,4.927,4.927,0,0,0-1.49,3.619v35.761a4.927,4.927,0,0,0,1.49,3.619,4.927,4.927,0,0,0,3.619,1.49H52.395a4.927,4.927,0,0,0,3.619-1.49,4.927,4.927,0,0,0,1.49-3.619V-52.049a4.927,4.927,0,0,0-1.49-3.619,4.927,4.927,0,0,0-3.619-1.49ZM16.634-26.506H11.525v-5.109h5.109Zm0-10.217H11.525v-5.109h5.109Zm0-10.217H11.525v-5.109h5.109Zm0-10.217H11.525v-5.109h5.109ZM26.851-26.506H21.743v-5.109h5.109Zm0-10.217H21.743v-5.109h5.109Zm0-10.217H21.743v-5.109h5.109Zm0-10.217H21.743v-5.109h5.109ZM49.84-26.506H31.96v-5.109h5.109v-5.109H31.96v-5.109h5.109V-46.94H31.96v-5.109H49.84a2.454,2.454,0,0,1,1.794.76,2.454,2.454,0,0,1,.76,1.794V-29.06a2.454,2.454,0,0,1-.76,1.794A2.454,2.454,0,0,1,49.84-26.506ZM47.286-46.94H42.177v5.109h5.109Zm0,10.217H42.177v5.109h5.109Z" transform="translate(376.947 260.643) rotate(16)" fill="#fff" stroke="rgba(0,0,0,0)" stroke-width="1" opacity="0.12"/><path d="M50.885-49.588v-8.894a8.577,8.577,0,0,0-2.594-6.3,8.577,8.577,0,0,0-6.3-2.594H15.31a8.577,8.577,0,0,0-6.3,2.594,8.577,8.577,0,0,0-2.594,6.3V3.775a8.577,8.577,0,0,0,2.594,6.3,8.577,8.577,0,0,0,6.3,2.594H86.46a8.577,8.577,0,0,0,6.3-2.594,8.577,8.577,0,0,0,2.594-6.3V-40.694a8.577,8.577,0,0,0-2.594-6.3,8.577,8.577,0,0,0-6.3-2.594ZM24.2,3.775H15.31V-5.119H24.2Zm0-17.787H15.31v-8.894H24.2Zm0-17.787H15.31v-8.894H24.2Zm0-17.787H15.31v-8.894H24.2ZM41.991,3.775H33.1V-5.119h8.894Zm0-17.787H33.1v-8.894h8.894Zm0-17.787H33.1v-8.894h8.894Zm0-17.787H33.1v-8.894h8.894ZM82.013,3.775H50.885V-5.119h8.894v-8.894H50.885v-8.894h8.894V-31.8H50.885v-8.894H82.013a4.272,4.272,0,0,1,3.123,1.323,4.272,4.272,0,0,1,1.323,3.123V-.672a4.272,4.272,0,0,1-1.323,3.123A4.272,4.272,0,0,1,82.013,3.775ZM77.566-31.8H68.673v8.894h8.894Zm0,17.787H68.673v8.894h8.894Z" transform="translate(1285.947 1174.643) rotate(16)" fill="#fff" stroke="rgba(0,0,0,0)" stroke-width="1" opacity="0.32"/><path d="M22.253-94.391H73.186a3.5,3.5,0,0,0,2.555-1.083,3.5,3.5,0,0,0,1.083-2.555,3.5,3.5,0,0,0-1.083-2.555,3.5,3.5,0,0,0-2.555-1.083H22.253a3.5,3.5,0,0,0-2.555,1.083,3.5,3.5,0,0,0-1.083,2.555A3.5,3.5,0,0,0,19.7-95.473,3.5,3.5,0,0,0,22.253-94.391ZM77.43-87.807a3.579,3.579,0,0,0-1.256-2.122,3.5,3.5,0,0,0-2.3-.823H21.56a3.5,3.5,0,0,0-2.3.823,3.579,3.579,0,0,0-1.256,2.122L14.37-69.617a3.364,3.364,0,0,0,.78,2.988,3.484,3.484,0,0,0,2.772,1.343h.693V-47.1A3.5,3.5,0,0,0,19.7-44.54a3.5,3.5,0,0,0,2.555,1.083h29.1a3.5,3.5,0,0,0,2.555-1.083A3.5,3.5,0,0,0,55-47.1v-18.19H69.548V-47.1a3.5,3.5,0,0,0,1.083,2.555,3.5,3.5,0,0,0,2.555,1.083,3.5,3.5,0,0,0,2.555-1.083A3.5,3.5,0,0,0,76.824-47.1v-18.19h.693a3.484,3.484,0,0,0,2.772-1.343,3.364,3.364,0,0,0,.78-2.988ZM47.719-50.734H25.891V-65.286H47.719Z" transform="translate(1298.549 968.823) rotate(16)" fill="#fff" stroke="rgba(0,0,0,0)" stroke-width="1" opacity="0.13"/><path d="M-22.705-29.992a7.435,7.435,0,0,0-5.461,2.249,7.435,7.435,0,0,0-2.249,5.461,7.435,7.435,0,0,0,2.249,5.461,7.435,7.435,0,0,0,5.461,2.249,7.435,7.435,0,0,0,5.461-2.249A7.435,7.435,0,0,0-15-22.283a7.435,7.435,0,0,0-2.249-5.461A7.435,7.435,0,0,0-22.705-29.992Zm-23.128-57.82A3.7,3.7,0,0,0-44.686-85.1a3.7,3.7,0,0,0,2.707,1.147h3.855L-24.266-54.68l-5.14,9.361a7.549,7.549,0,0,0-.826,5.231,7.846,7.846,0,0,0,2.616,4.451,7.251,7.251,0,0,0,4.91,1.79H19.7A3.7,3.7,0,0,0,22.4-34.994,3.7,3.7,0,0,0,23.551-37.7,3.7,3.7,0,0,0,22.4-40.409,3.7,3.7,0,0,0,19.7-41.556h-42.4l4.222-7.709H10.243a7.786,7.786,0,0,0,3.946-1.055,7.384,7.384,0,0,0,2.845-2.891L30.8-78.267a3.449,3.449,0,0,0,.459-2.57,3.793,3.793,0,0,0-1.331-2.249,3.836,3.836,0,0,0-2.524-.872H-29.589l-2.57-5.507a3.613,3.613,0,0,0-1.423-1.606,3.855,3.855,0,0,0-2.065-.6h-6.333a3.7,3.7,0,0,0-2.707,1.147A3.7,3.7,0,0,0-45.833-87.812Zm61.675,57.82a7.435,7.435,0,0,0-5.461,2.249,7.435,7.435,0,0,0-2.249,5.461,7.435,7.435,0,0,0,2.249,5.461,7.435,7.435,0,0,0,5.461,2.249A7.435,7.435,0,0,0,21.3-16.822a7.435,7.435,0,0,0,2.249-5.461A7.435,7.435,0,0,0,21.3-27.744,7.435,7.435,0,0,0,15.841-29.992Z" transform="translate(575.493 150.312) rotate(-3)" fill="#fff" stroke="rgba(0,0,0,0)" stroke-width="1" opacity="0.37"/><path d="M-30.233-36.215v22.866a8.258,8.258,0,0,0,2.518,6.057,8.258,8.258,0,0,0,6.057,2.518A8.258,8.258,0,0,0-15.6-7.292a8.258,8.258,0,0,0,2.518-6.057V-36.215A8.258,8.258,0,0,0-15.6-42.272a8.258,8.258,0,0,0-6.057-2.518,8.258,8.258,0,0,0-6.057,2.518A8.258,8.258,0,0,0-30.233-36.215Zm34.3,0v22.866A8.258,8.258,0,0,0,6.584-7.292a8.258,8.258,0,0,0,6.057,2.518A8.258,8.258,0,0,0,18.7-7.292a8.258,8.258,0,0,0,2.518-6.057V-36.215A8.258,8.258,0,0,0,18.7-42.272a8.258,8.258,0,0,0-6.057-2.518,8.258,8.258,0,0,0-6.057,2.518A8.258,8.258,0,0,0,4.066-36.215ZM-33.092,23.809H58.374a8.258,8.258,0,0,0,6.057-2.518,8.258,8.258,0,0,0,2.518-6.057A8.258,8.258,0,0,0,64.43,9.177a8.258,8.258,0,0,0-6.057-2.518H-33.092a8.258,8.258,0,0,0-6.057,2.518,8.258,8.258,0,0,0-2.518,6.057,8.258,8.258,0,0,0,2.518,6.057A8.258,8.258,0,0,0-33.092,23.809ZM38.366-36.215v22.866a8.258,8.258,0,0,0,2.518,6.057A8.258,8.258,0,0,0,46.94-4.774,8.258,8.258,0,0,0,53-7.292a8.258,8.258,0,0,0,2.518-6.057V-36.215A8.258,8.258,0,0,0,53-42.272,8.258,8.258,0,0,0,46.94-44.79a8.258,8.258,0,0,0-6.057,2.518A8.258,8.258,0,0,0,38.366-36.215ZM7.333-93.381-37.856-69.7a7.138,7.138,0,0,0-2.79,2.654A7.139,7.139,0,0,0-41.667-63.3a6.8,6.8,0,0,0,2.11,4.968,6.8,6.8,0,0,0,4.968,2.11h94.46a6.8,6.8,0,0,0,4.968-2.11,6.8,6.8,0,0,0,2.11-4.968,7.139,7.139,0,0,0-1.021-3.743,7.138,7.138,0,0,0-2.79-2.654L17.949-93.381a10.752,10.752,0,0,0-5.308-1.361A10.752,10.752,0,0,0,7.333-93.381Z" transform="translate(137.221 151.016) rotate(-21)" fill="#fff" stroke="rgba(0,0,0,0)" stroke-width="1" opacity="0.15"/><path d="M43.475-52.552v-7.412a7.148,7.148,0,0,0-2.162-5.25,7.148,7.148,0,0,0-5.25-2.162H13.828a7.148,7.148,0,0,0-5.25,2.162,7.148,7.148,0,0,0-2.162,5.25V-8.082a7.147,7.147,0,0,0,2.162,5.25A7.147,7.147,0,0,0,13.828-.67H73.121a7.147,7.147,0,0,0,5.25-2.162,7.148,7.148,0,0,0,2.162-5.25V-45.14a7.148,7.148,0,0,0-2.162-5.25,7.148,7.148,0,0,0-5.25-2.162ZM21.24-8.082H13.828v-7.412H21.24Zm0-14.823H13.828v-7.412H21.24Zm0-14.823H13.828V-45.14H21.24Zm0-14.823H13.828v-7.412H21.24ZM36.063-8.082H28.652v-7.412h7.412Zm0-14.823H28.652v-7.412h7.412Zm0-14.823H28.652V-45.14h7.412Zm0-14.823H28.652v-7.412h7.412ZM69.415-8.082H43.475v-7.412h7.412v-7.412H43.475v-7.412h7.412v-7.412H43.475V-45.14H69.415a3.56,3.56,0,0,1,2.6,1.1,3.56,3.56,0,0,1,1.1,2.6v29.646a3.56,3.56,0,0,1-1.1,2.6A3.56,3.56,0,0,1,69.415-8.082ZM65.71-37.729H58.3v7.412H65.71Zm0,14.823H58.3v7.412H65.71Z" transform="translate(104.026 518.694) rotate(-16)" fill="#fff" stroke="rgba(0,0,0,0)" stroke-width="1" opacity="0.12"/><path d="M46.37-93.156v-6.3a1.708,1.708,0,0,0-.5-1.259,1.658,1.658,0,0,0-1.217-.5,1.953,1.953,0,0,0-1.3.5L33.527-90.89a1.805,1.805,0,0,0-.588,1.3,1.549,1.549,0,0,0,.588,1.217l9.821,9.821a1.626,1.626,0,0,0,1.931.378A1.647,1.647,0,0,0,46.37-79.81v-6.3a20.547,20.547,0,0,1,10.576,2.854,21.288,21.288,0,0,1,7.722,7.722,20.547,20.547,0,0,1,2.854,10.576,20.231,20.231,0,0,1-1.511,7.89,3.241,3.241,0,0,0-.21,1.973,3.435,3.435,0,0,0,.965,1.721A3.377,3.377,0,0,0,70-52.4a3.251,3.251,0,0,0,2.56-2.14,27.361,27.361,0,0,0,2.015-10.408,27.882,27.882,0,0,0-3.861-14.27A27.184,27.184,0,0,0,60.64-89.295,27.882,27.882,0,0,0,46.37-93.156Zm0,49.356a20.547,20.547,0,0,1-10.576-2.854,21.288,21.288,0,0,1-7.722-7.722,20.547,20.547,0,0,1-2.854-10.576,20.231,20.231,0,0,1,1.511-7.89,3.241,3.241,0,0,0,.21-1.973,3.435,3.435,0,0,0-.965-1.721,3.377,3.377,0,0,0-3.232-.965,3.251,3.251,0,0,0-2.56,2.14,27.36,27.36,0,0,0-2.015,10.408,27.882,27.882,0,0,0,3.861,14.27A27.184,27.184,0,0,0,32.1-40.61a27.882,27.882,0,0,0,14.27,3.861v6.3a1.708,1.708,0,0,0,.5,1.259,1.658,1.658,0,0,0,1.217.5,1.953,1.953,0,0,0,1.3-.5l9.821-9.821a1.953,1.953,0,0,0,.5-1.3,1.658,1.658,0,0,0-.5-1.217l-9.821-9.821a1.626,1.626,0,0,0-1.931-.378A1.647,1.647,0,0,0,46.37-50.1Z" transform="matrix(0.259, 0.966, -0.966, 0.259, 908.889, 1327.068)" fill="#fff" stroke="rgba(0,0,0,0)" stroke-width="1" opacity="0.18"/><path d="M65.695-74.244H52.855v-6.42a6.191,6.191,0,0,0-1.872-4.547,6.191,6.191,0,0,0-4.547-1.872H33.6a6.191,6.191,0,0,0-4.547,1.872,6.191,6.191,0,0,0-1.872,4.547v6.42H14.336a6.191,6.191,0,0,0-4.547,1.872,6.191,6.191,0,0,0-1.872,4.547v35.309a6.191,6.191,0,0,0,1.872,4.547A6.191,6.191,0,0,0,14.336-26.1H65.695a6.191,6.191,0,0,0,4.547-1.872,6.191,6.191,0,0,0,1.872-4.547V-67.824a6.191,6.191,0,0,0-1.872-4.547A6.191,6.191,0,0,0,65.695-74.244Zm-19.259,0H33.6v-6.42h12.84Z" transform="translate(79.299 739.355) rotate(9)" fill="#fff" stroke="rgba(0,0,0,0)" stroke-width="1" opacity="0.41"/><path d="M63-99.75H20.344a5.877,5.877,0,0,0-4.317,1.778,5.877,5.877,0,0,0-1.778,4.317V-51a5.877,5.877,0,0,0,1.778,4.317A5.877,5.877,0,0,0,20.344-44.9H63a5.877,5.877,0,0,0,4.317-1.778A5.877,5.877,0,0,0,69.1-51v-42.66a5.877,5.877,0,0,0-1.778-4.317A5.877,5.877,0,0,0,63-99.75ZM29.486-57.09A2.927,2.927,0,0,1,27.346-58a2.927,2.927,0,0,1-.907-2.14V-75.373a2.927,2.927,0,0,1,.907-2.14,2.927,2.927,0,0,1,2.14-.907,2.927,2.927,0,0,1,2.14.907,2.927,2.927,0,0,1,.907,2.14v15.236A2.927,2.927,0,0,1,31.626-58,2.927,2.927,0,0,1,29.486-57.09Zm12.189,0A2.927,2.927,0,0,1,39.534-58a2.927,2.927,0,0,1-.907-2.14V-84.514a2.927,2.927,0,0,1,.907-2.14,2.927,2.927,0,0,1,2.14-.907,2.927,2.927,0,0,1,2.14.907,2.927,2.927,0,0,1,.907,2.14v24.377A2.927,2.927,0,0,1,43.815-58,2.927,2.927,0,0,1,41.675-57.09Zm12.189,0A2.927,2.927,0,0,1,51.723-58a2.927,2.927,0,0,1-.907-2.14v-6.094a2.927,2.927,0,0,1,.907-2.14,2.927,2.927,0,0,1,2.14-.907,2.927,2.927,0,0,1,2.14.907,2.927,2.927,0,0,1,.907,2.14v6.094A2.927,2.927,0,0,1,56-58,2.927,2.927,0,0,1,53.863-57.09Z" transform="matrix(0.985, -0.174, 0.174, 0.985, 586.086, 1479.217)" fill="#fff" stroke="rgba(0,0,0,0)" stroke-width="1" opacity="0.41"/><path d="M10.961-67.7a3.977,3.977,0,0,0,2.8.909,3.968,3.968,0,0,0,2.727-1.189,3.954,3.954,0,0,0,1.224-3.146,4.108,4.108,0,0,0-1.5-3.007,44.4,44.4,0,0,0-17.62-8.88,44.6,44.6,0,0,0-19.228-.7l7.551,7.621A37.1,37.1,0,0,1-.506-74.058,37.419,37.419,0,0,1,10.961-67.7ZM4.249-62.312a27.976,27.976,0,0,0-7.411-3.846l8.67,8.67a4.291,4.291,0,0,0,.245-2.692A3.353,3.353,0,0,0,4.249-62.312ZM-7.008-49.8a12.47,12.47,0,0,0-5.768-1.4,12.055,12.055,0,0,0-5.7,1.4,2.614,2.614,0,0,0-1.538,2.133,2.693,2.693,0,0,0,.839,2.482l4.335,4.335a2.8,2.8,0,0,0,2.063.839,2.8,2.8,0,0,0,2.063-.839l4.335-4.335A2.772,2.772,0,0,0-5.5-47.664,2.534,2.534,0,0,0-7.008-49.8ZM9.842-44.9-35.885-90.629a2.8,2.8,0,0,0-2.063-.839,2.747,2.747,0,0,0-2.063.874,2.88,2.88,0,0,0-.839,2.063,3,3,0,0,0,.839,2.1l6.852,6.852a47.018,47.018,0,0,0-8.46,5.454,3.915,3.915,0,0,0-1.538,3.007A4.064,4.064,0,0,0-41.9-67.975a4.074,4.074,0,0,0,2.692,1.224,3.655,3.655,0,0,0,2.762-.944,38.749,38.749,0,0,1,9.579-5.663l6.5,6.572a27.883,27.883,0,0,0-9.369,4.4A3.875,3.875,0,0,0-31.3-59.375a4.041,4.041,0,0,0,1.224,3.216h0a4.006,4.006,0,0,0,2.622,1.224,4.1,4.1,0,0,0,2.762-.8,20.625,20.625,0,0,1,11.676-3.776L5.647-40.847a3,3,0,0,0,2.1.839,2.946,2.946,0,0,0,2.063-.8,2.637,2.637,0,0,0,.874-2.028A2.8,2.8,0,0,0,9.842-44.9Z" transform="translate(1352.881 1452.384) rotate(-14)" fill="#fff" stroke="rgba(0,0,0,0)" stroke-width="1" opacity="0.15"/><path d="M32.852-16.987a15.843,15.843,0,0,0-4.065-6.306,15.7,15.7,0,0,0-6.434-3.745,15.87,15.87,0,0,0-8-.384A15.889,15.889,0,0,0,6.315-23.1,15.331,15.331,0,0,0,1.93-15.13,16.058,16.058,0,0,0,2.762-5.4a16,16,0,0,0,5.922,7.17,15.7,15.7,0,0,0,8.995,2.753,15.567,15.567,0,0,0,9.347-3.009,15.859,15.859,0,0,0,5.826-7.747H44.568V-.854a5.186,5.186,0,0,0,1.569,3.809,5.186,5.186,0,0,0,3.809,1.569,5.186,5.186,0,0,0,3.809-1.569A5.186,5.186,0,0,0,55.323-.854V-6.231A5.186,5.186,0,0,0,59.132-7.8,5.186,5.186,0,0,0,60.7-11.609a5.186,5.186,0,0,0-1.569-3.809,5.186,5.186,0,0,0-3.809-1.569ZM17.679-6.231A5.186,5.186,0,0,1,13.87-7.8,5.186,5.186,0,0,1,12.3-11.609a5.186,5.186,0,0,1,1.569-3.809,5.186,5.186,0,0,1,3.809-1.569,5.186,5.186,0,0,1,3.809,1.569,5.186,5.186,0,0,1,1.569,3.809A5.186,5.186,0,0,1,21.488-7.8,5.186,5.186,0,0,1,17.679-6.231Z" transform="translate(1126.903 1449.656) rotate(20)" fill="#fff" stroke="rgba(0,0,0,0)" stroke-width="1" opacity="0.48"/><path d="M46.8-73.333A39.6,39.6,0,0,0,26.54-67.887,40.157,40.157,0,0,0,12.113-53.46,39.6,39.6,0,0,0,6.667-33.2,39.6,39.6,0,0,0,12.113-12.95,40.157,40.157,0,0,0,26.54,1.477,39.6,39.6,0,0,0,46.8,6.923,39.6,39.6,0,0,0,67.05,1.477,40.157,40.157,0,0,0,81.477-12.95,39.6,39.6,0,0,0,86.923-33.2,39.6,39.6,0,0,0,81.477-53.46,40.157,40.157,0,0,0,67.05-67.887,39.6,39.6,0,0,0,46.8-73.333Zm12.9,61.721L46.8-19.351,33.9-11.612a1.8,1.8,0,0,1-2.245-.048,1.867,1.867,0,0,1-.812-2.054l3.44-14.714-11.37-9.841a1.939,1.939,0,0,1-.573-2.15,1.786,1.786,0,0,1,1.72-1.385l15-1.242L44.98-56.9A1.79,1.79,0,0,1,46.8-58.142,1.79,1.79,0,0,1,48.61-56.9l5.924,13.758,15,1.338a1.786,1.786,0,0,1,1.72,1.385,1.881,1.881,0,0,1-.669,2.15L59.311-28.428l3.344,14.714a1.886,1.886,0,0,1-.764,2.054A1.728,1.728,0,0,1,59.693-11.612Z" transform="matrix(0.978, 0.208, -0.208, 0.978, 1192.558, 342.809)" fill="#fff" stroke="rgba(0,0,0,0)" stroke-width="1" opacity="0.08"/><path d="M21.4-96.5H66.884a3.556,3.556,0,0,0,2.282-.769,2.267,2.267,0,0,0,.967-1.814,2.267,2.267,0,0,0-.967-1.814,3.556,3.556,0,0,0-2.282-.769H21.4a3.556,3.556,0,0,0-2.282.769,2.267,2.267,0,0,0-.967,1.814,2.267,2.267,0,0,0,.967,1.814A3.556,3.556,0,0,0,21.4-96.5Zm49.273,4.674a2.508,2.508,0,0,0-1.122-1.507,3.649,3.649,0,0,0-2.05-.584H20.782a3.649,3.649,0,0,0-2.05.584,2.508,2.508,0,0,0-1.122,1.507L14.362-78.91a2.055,2.055,0,0,0,.7,2.122,3.461,3.461,0,0,0,2.475.953h.619v12.916a2.267,2.267,0,0,0,.967,1.814,3.556,3.556,0,0,0,2.282.769h25.99a3.556,3.556,0,0,0,2.282-.769,2.267,2.267,0,0,0,.967-1.814V-75.835h13v12.916A2.267,2.267,0,0,0,64.6-61.1a3.556,3.556,0,0,0,2.282.769,3.556,3.556,0,0,0,2.282-.769,2.267,2.267,0,0,0,.967-1.814V-75.835h.619a3.461,3.461,0,0,0,2.475-.953,2.055,2.055,0,0,0,.7-2.122ZM44.142-65.5H24.649V-75.835H44.142Z" transform="translate(907.086 159.59) rotate(-21)" fill="#fff" stroke="rgba(0,0,0,0)" stroke-width="1" opacity="0.38"/><path d="M48.713-11.53a23.868,23.868,0,0,0-6.124-9.5A23.655,23.655,0,0,0,32.9-26.672a23.908,23.908,0,0,0-12.056-.579,23.936,23.936,0,0,0-12.1,6.51A23.1,23.1,0,0,0,2.129-8.733,24.191,24.191,0,0,0,3.383,5.926a24.1,24.1,0,0,0,8.921,10.8,23.644,23.644,0,0,0,13.551,4.147,23.451,23.451,0,0,0,14.081-4.533,23.892,23.892,0,0,0,8.777-11.67h17.65v8.1a7.813,7.813,0,0,0,2.363,5.739,8.15,8.15,0,0,0,11.477,0,7.813,7.813,0,0,0,2.363-5.739v-8.1A7.813,7.813,0,0,0,88.3,2.31a7.813,7.813,0,0,0,2.363-5.739A7.813,7.813,0,0,0,88.3-9.167a7.813,7.813,0,0,0-5.739-2.363ZM25.855,4.673A7.813,7.813,0,0,1,20.116,2.31a7.813,7.813,0,0,1-2.363-5.739,7.813,7.813,0,0,1,2.363-5.739,7.813,7.813,0,0,1,5.739-2.363,7.813,7.813,0,0,1,5.739,2.363,7.813,7.813,0,0,1,2.363,5.739A7.813,7.813,0,0,1,31.593,2.31,7.813,7.813,0,0,1,25.855,4.673Z" transform="translate(1218.906 107.358) rotate(-7)" fill="#fff" stroke="rgba(0,0,0,0)" stroke-width="1" opacity="0.48"/><path d="M-35.546-63.411V-51.17A4.42,4.42,0,0,0-34.2-47.928a4.42,4.42,0,0,0,3.242,1.348,4.42,4.42,0,0,0,3.242-1.348,4.42,4.42,0,0,0,1.348-3.242V-63.411a4.42,4.42,0,0,0-1.348-3.242A4.42,4.42,0,0,0-30.956-68,4.42,4.42,0,0,0-34.2-66.654,4.42,4.42,0,0,0-35.546-63.411Zm18.361,0V-51.17a4.42,4.42,0,0,0,1.348,3.242,4.42,4.42,0,0,0,3.242,1.348,4.42,4.42,0,0,0,3.242-1.348A4.421,4.421,0,0,0-8-51.17V-63.411a4.42,4.42,0,0,0-1.348-3.242A4.421,4.421,0,0,0-12.595-68a4.42,4.42,0,0,0-3.242,1.348A4.42,4.42,0,0,0-17.185-63.411ZM-37.076-31.279H11.887a4.42,4.42,0,0,0,3.242-1.348,4.42,4.42,0,0,0,1.348-3.242,4.42,4.42,0,0,0-1.348-3.242,4.42,4.42,0,0,0-3.242-1.348H-37.076a4.421,4.421,0,0,0-3.242,1.348,4.42,4.42,0,0,0-1.348,3.242,4.42,4.42,0,0,0,1.348,3.242A4.42,4.42,0,0,0-37.076-31.279ZM1.176-63.411V-51.17a4.42,4.42,0,0,0,1.348,3.242A4.42,4.42,0,0,0,5.767-46.58a4.421,4.421,0,0,0,3.242-1.348,4.421,4.421,0,0,0,1.348-3.242V-63.411a4.421,4.421,0,0,0-1.348-3.242A4.421,4.421,0,0,0,5.767-68a4.42,4.42,0,0,0-3.242,1.348A4.42,4.42,0,0,0,1.176-63.411Zm-16.613-30.6-24.19,12.678a3.821,3.821,0,0,0-1.494,1.421,3.822,3.822,0,0,0-.546,2,3.639,3.639,0,0,0,1.129,2.659,3.639,3.639,0,0,0,2.659,1.129H12.689a3.639,3.639,0,0,0,2.659-1.129,3.639,3.639,0,0,0,1.129-2.659,3.822,3.822,0,0,0-.546-2,3.821,3.821,0,0,0-1.494-1.421L-9.753-94.013a5.756,5.756,0,0,0-2.842-.729A5.756,5.756,0,0,0-15.436-94.013Z" transform="translate(1372.787 563.149) rotate(-2)" fill="#fff" stroke="rgba(0,0,0,0)" stroke-width="1" opacity="0.15"/><path d="M30.936-29.513h0a3.646,3.646,0,0,0,.754,2.261A3.748,3.748,0,0,0,33.649-25.9,17.724,17.724,0,0,1,40.1-22.249a17.91,17.91,0,0,1,4.431,5.938,17.233,17.233,0,0,1,1.6,7.355,17.738,17.738,0,0,1-.422,3.8,3.635,3.635,0,0,0,.181,2.351,3.5,3.5,0,0,0,1.567,1.748V-1a3.831,3.831,0,0,0,2.291.482,3.812,3.812,0,0,0,2.11-.874,3.609,3.609,0,0,0,1.206-1.9,24.794,24.794,0,0,0,.663-5.667,25.043,25.043,0,0,0-2.351-10.671,25.05,25.05,0,0,0-6.33-8.41,24.952,24.952,0,0,0-9.224-5.155,3.528,3.528,0,0,0-2.321.06,4.047,4.047,0,0,0-1.839,1.387A3.617,3.617,0,0,0,30.936-29.513Zm-5.245,38.1a16.824,16.824,0,0,1-6.9-2.622A18.324,18.324,0,0,1,13.513.691,16.826,16.826,0,0,1,10.86-6.242a17.668,17.668,0,0,1,.784-8.561,17.365,17.365,0,0,1,4.431-6.9A17.815,17.815,0,0,1,23.1-25.9a3.749,3.749,0,0,0,2.02-1.356,3.646,3.646,0,0,0,.754-2.261h0a3.617,3.617,0,0,0-.723-2.231A4.047,4.047,0,0,0,23.31-33.13a3.528,3.528,0,0,0-2.321-.06,24.763,24.763,0,0,0-10.038,5.878,25.379,25.379,0,0,0-6.36,9.736A25.262,25.262,0,0,0,3.324-5.459,24.4,24.4,0,0,0,7.062,4.7a25.622,25.622,0,0,0,7.656,7.687,24.175,24.175,0,0,0,10.128,3.738,25.335,25.335,0,0,0,11.274-.965,25.159,25.159,0,0,0,9.344-5.426,3.744,3.744,0,0,0,1.145-2.05,3.826,3.826,0,0,0-.241-2.321A3.519,3.519,0,0,0,44.8,3.645a3.8,3.8,0,0,0-2.351-.452,4.04,4.04,0,0,0-2.231.995,16.665,16.665,0,0,1-6.511,3.8A17.929,17.929,0,0,1,25.691,8.588Z" transform="translate(1350.904 756)" fill="#fff" stroke="rgba(0,0,0,0)" stroke-width="1" opacity="0.11"/><path d="M30.936-29.513h0a3.646,3.646,0,0,0,.754,2.261A3.748,3.748,0,0,0,33.649-25.9,17.724,17.724,0,0,1,40.1-22.249a17.91,17.91,0,0,1,4.431,5.938,17.233,17.233,0,0,1,1.6,7.355,17.738,17.738,0,0,1-.422,3.8,3.635,3.635,0,0,0,.181,2.351,3.5,3.5,0,0,0,1.567,1.748V-1a3.831,3.831,0,0,0,2.291.482,3.812,3.812,0,0,0,2.11-.874,3.609,3.609,0,0,0,1.206-1.9,24.794,24.794,0,0,0,.663-5.667,25.043,25.043,0,0,0-2.351-10.671,25.05,25.05,0,0,0-6.33-8.41,24.952,24.952,0,0,0-9.224-5.155,3.528,3.528,0,0,0-2.321.06,4.047,4.047,0,0,0-1.839,1.387A3.617,3.617,0,0,0,30.936-29.513Zm-5.245,38.1a16.824,16.824,0,0,1-6.9-2.622A18.324,18.324,0,0,1,13.513.691,16.826,16.826,0,0,1,10.86-6.242a17.668,17.668,0,0,1,.784-8.561,17.365,17.365,0,0,1,4.431-6.9A17.815,17.815,0,0,1,23.1-25.9a3.749,3.749,0,0,0,2.02-1.356,3.646,3.646,0,0,0,.754-2.261h0a3.617,3.617,0,0,0-.723-2.231A4.047,4.047,0,0,0,23.31-33.13a3.528,3.528,0,0,0-2.321-.06,24.763,24.763,0,0,0-10.038,5.878,25.379,25.379,0,0,0-6.36,9.736A25.262,25.262,0,0,0,3.324-5.459,24.4,24.4,0,0,0,7.062,4.7a25.622,25.622,0,0,0,7.656,7.687,24.175,24.175,0,0,0,10.128,3.738,25.335,25.335,0,0,0,11.274-.965,25.159,25.159,0,0,0,9.344-5.426,3.744,3.744,0,0,0,1.145-2.05,3.826,3.826,0,0,0-.241-2.321A3.519,3.519,0,0,0,44.8,3.645a3.8,3.8,0,0,0-2.351-.452,4.04,4.04,0,0,0-2.231.995,16.665,16.665,0,0,1-6.511,3.8A17.929,17.929,0,0,1,25.691,8.588Z" transform="matrix(0.848, -0.53, 0.53, 0.848, 87.721, 1277.761)" fill="#fff" stroke="rgba(0,0,0,0)" stroke-width="1" opacity="0.11"/><path d="M-22.2-59.082V-76.57a4.216,4.216,0,0,1,1.275-3.1,4.216,4.216,0,0,1,3.1-1.275H1.848v-2.186a4.216,4.216,0,0,0-1.275-3.1,4.216,4.216,0,0,0-3.1-1.275h-30.6a4.216,4.216,0,0,0-3.1,1.275,4.216,4.216,0,0,0-1.275,3.1v30.6a4.216,4.216,0,0,0,1.275,3.1,4.216,4.216,0,0,0,3.1,1.275h30.6a4.216,4.216,0,0,0,3.1-1.275,4.216,4.216,0,0,0,1.275-3.1V-54.71H-17.826a4.216,4.216,0,0,1-3.1-1.275A4.216,4.216,0,0,1-22.2-59.082ZM-15.64-76.57a2.1,2.1,0,0,0-1.535.651,2.1,2.1,0,0,0-.651,1.535v13.116a2.1,2.1,0,0,0,.651,1.535,2.1,2.1,0,0,0,1.535.651H4.034V-76.57Zm6.558,12.023A3.158,3.158,0,0,1-11.4-65.51a3.158,3.158,0,0,1-.963-2.316,3.158,3.158,0,0,1,.963-2.316A3.158,3.158,0,0,1-9.082-71.1a3.158,3.158,0,0,1,2.316.963A3.158,3.158,0,0,1-5.8-67.826a3.158,3.158,0,0,1-.963,2.316A3.158,3.158,0,0,1-9.082-64.547Z" transform="matrix(0.978, 0.208, -0.208, 0.978, 105.65, 1493.474)" fill="#fff" stroke="rgba(0,0,0,0)" stroke-width="1" opacity="0.19"/><path d="M-.581-95.833H-24.4a4.6,4.6,0,0,0-3.375,1.39,4.6,4.6,0,0,0-1.39,3.375V-48.19a4.6,4.6,0,0,0,1.39,3.375,4.6,4.6,0,0,0,3.375,1.39H-.581a4.6,4.6,0,0,0,3.375-1.39,4.6,4.6,0,0,0,1.39-3.375V-91.069a4.6,4.6,0,0,0-1.39-3.375A4.6,4.6,0,0,0-.581-95.833Zm0,42.879H-24.4V-86.3H-.581Z" transform="translate(396.791 1499.268) rotate(24)" fill="#fff" stroke="rgba(0,0,0,0)" stroke-width="1" opacity="0.09"/><path d="M-37.5-73.419v8.331a3.008,3.008,0,0,0,.917,2.207,3.008,3.008,0,0,0,2.207.917,3.008,3.008,0,0,0,2.207-.917,3.008,3.008,0,0,0,.917-2.207v-8.331a3.008,3.008,0,0,0-.917-2.207,3.008,3.008,0,0,0-2.207-.917,3.008,3.008,0,0,0-2.207.917A3.008,3.008,0,0,0-37.5-73.419Zm12.5,0v8.331a3.008,3.008,0,0,0,.917,2.207,3.008,3.008,0,0,0,2.207.917,3.008,3.008,0,0,0,2.207-.917,3.008,3.008,0,0,0,.917-2.207v-8.331a3.008,3.008,0,0,0-.917-2.207,3.008,3.008,0,0,0-2.207-.917,3.008,3.008,0,0,0-2.207.917A3.008,3.008,0,0,0-25.005-73.419ZM-38.543-51.551H-5.22a3.008,3.008,0,0,0,2.207-.917A3.008,3.008,0,0,0-2.1-54.675a3.008,3.008,0,0,0-.917-2.207A3.008,3.008,0,0,0-5.22-57.8H-38.543a3.008,3.008,0,0,0-2.207.917,3.008,3.008,0,0,0-.917,2.207,3.008,3.008,0,0,0,.917,2.207A3.008,3.008,0,0,0-38.543-51.551Zm26.034-21.868v8.331a3.008,3.008,0,0,0,.917,2.207,3.008,3.008,0,0,0,2.207.917,3.008,3.008,0,0,0,2.207-.917,3.008,3.008,0,0,0,.917-2.207v-8.331a3.008,3.008,0,0,0-.917-2.207,3.008,3.008,0,0,0-2.207-.917,3.008,3.008,0,0,0-2.207.917A3.008,3.008,0,0,0-12.509-73.419ZM-23.815-94.246l-16.463,8.628a2.6,2.6,0,0,0-1.017.967,2.6,2.6,0,0,0-.372,1.364,2.476,2.476,0,0,0,.769,1.81,2.476,2.476,0,0,0,1.81.769H-4.674a2.476,2.476,0,0,0,1.81-.769,2.476,2.476,0,0,0,.769-1.81,2.6,2.6,0,0,0-.372-1.364,2.6,2.6,0,0,0-1.017-.967l-16.463-8.628a3.917,3.917,0,0,0-1.934-.5A3.917,3.917,0,0,0-23.815-94.246Z" transform="translate(872.228 1520.37) rotate(-21)" fill="#fff" stroke="rgba(0,0,0,0)" stroke-width="1" opacity="0.15"/><path d="M46.37-93.156v-6.3a1.708,1.708,0,0,0-.5-1.259,1.658,1.658,0,0,0-1.217-.5,1.953,1.953,0,0,0-1.3.5L33.527-90.89a1.805,1.805,0,0,0-.588,1.3,1.549,1.549,0,0,0,.588,1.217l9.821,9.821a1.626,1.626,0,0,0,1.931.378A1.647,1.647,0,0,0,46.37-79.81v-6.3a20.547,20.547,0,0,1,10.576,2.854,21.288,21.288,0,0,1,7.722,7.722,20.547,20.547,0,0,1,2.854,10.576,20.231,20.231,0,0,1-1.511,7.89,3.241,3.241,0,0,0-.21,1.973,3.435,3.435,0,0,0,.965,1.721A3.377,3.377,0,0,0,70-52.4a3.251,3.251,0,0,0,2.56-2.14,27.361,27.361,0,0,0,2.015-10.408,27.882,27.882,0,0,0-3.861-14.27A27.184,27.184,0,0,0,60.64-89.295,27.882,27.882,0,0,0,46.37-93.156Zm0,49.356a20.547,20.547,0,0,1-10.576-2.854,21.288,21.288,0,0,1-7.722-7.722,20.547,20.547,0,0,1-2.854-10.576,20.231,20.231,0,0,1,1.511-7.89,3.241,3.241,0,0,0,.21-1.973,3.435,3.435,0,0,0-.965-1.721,3.377,3.377,0,0,0-3.232-.965,3.251,3.251,0,0,0-2.56,2.14,27.36,27.36,0,0,0-2.015,10.408,27.882,27.882,0,0,0,3.861,14.27A27.184,27.184,0,0,0,32.1-40.61a27.882,27.882,0,0,0,14.27,3.861v6.3a1.708,1.708,0,0,0,.5,1.259,1.658,1.658,0,0,0,1.217.5,1.953,1.953,0,0,0,1.3-.5l9.821-9.821a1.953,1.953,0,0,0,.5-1.3,1.658,1.658,0,0,0-.5-1.217l-9.821-9.821a1.626,1.626,0,0,0-1.931-.378A1.647,1.647,0,0,0,46.37-50.1Z" transform="translate(435.349 108.618) rotate(-103)" fill="#fff" stroke="rgba(0,0,0,0)" stroke-width="1" opacity="0.1"/><path d="M20.728-95.784H61.906a2.825,2.825,0,0,0,2.066-.875,2.825,2.825,0,0,0,.875-2.066,2.825,2.825,0,0,0-.875-2.066,2.825,2.825,0,0,0-2.066-.875H20.728a2.825,2.825,0,0,0-2.066.875,2.825,2.825,0,0,0-.875,2.066,2.825,2.825,0,0,0,.875,2.066A2.825,2.825,0,0,0,20.728-95.784Zm44.61,5.322a2.894,2.894,0,0,0-1.015-1.716,2.83,2.83,0,0,0-1.856-.665h-42.3a2.83,2.83,0,0,0-1.856.665A2.894,2.894,0,0,0,17.3-90.462L14.355-75.755a2.72,2.72,0,0,0,.63,2.416,2.817,2.817,0,0,0,2.241,1.085h.56v14.707a2.825,2.825,0,0,0,.875,2.066,2.825,2.825,0,0,0,2.066.875H44.258a2.825,2.825,0,0,0,2.066-.875,2.825,2.825,0,0,0,.875-2.066V-72.253H58.965v14.707a2.825,2.825,0,0,0,.875,2.066,2.825,2.825,0,0,0,2.066.875,2.825,2.825,0,0,0,2.066-.875,2.825,2.825,0,0,0,.875-2.066V-72.253h.56a2.816,2.816,0,0,0,2.241-1.085,2.72,2.72,0,0,0,.63-2.416ZM41.317-60.488H23.669V-72.253H41.317Z" transform="translate(21.035 392.771) rotate(14)" fill="#fff" stroke="rgba(0,0,0,0)" stroke-width="1" opacity="0.13"/><rect width="1441" height="1507" fill="none"/><path d="M-35.73-64.35v11.874a4.288,4.288,0,0,0,1.308,3.145,4.288,4.288,0,0,0,3.145,1.308,4.288,4.288,0,0,0,3.145-1.308,4.288,4.288,0,0,0,1.308-3.145V-64.35A4.288,4.288,0,0,0-28.132-67.5,4.288,4.288,0,0,0-31.277-68.8,4.288,4.288,0,0,0-34.422-67.5,4.288,4.288,0,0,0-35.73-64.35Zm17.811,0v11.874a4.288,4.288,0,0,0,1.308,3.145,4.288,4.288,0,0,0,3.145,1.308A4.288,4.288,0,0,0-10.32-49.33a4.288,4.288,0,0,0,1.308-3.145V-64.35A4.288,4.288,0,0,0-10.32-67.5,4.288,4.288,0,0,0-13.466-68.8,4.288,4.288,0,0,0-16.611-67.5,4.288,4.288,0,0,0-17.918-64.35Zm-19.3,31.17h47.5a4.288,4.288,0,0,0,3.145-1.308,4.288,4.288,0,0,0,1.308-3.145,4.288,4.288,0,0,0-1.308-3.145,4.288,4.288,0,0,0-3.145-1.308h-47.5a4.288,4.288,0,0,0-3.145,1.308,4.288,4.288,0,0,0-1.308,3.145,4.288,4.288,0,0,0,1.308,3.145A4.288,4.288,0,0,0-37.214-33.18ZM-.107-64.35v11.874A4.288,4.288,0,0,0,1.2-49.33a4.288,4.288,0,0,0,3.145,1.308A4.288,4.288,0,0,0,7.491-49.33,4.288,4.288,0,0,0,8.8-52.476V-64.35A4.288,4.288,0,0,0,7.491-67.5,4.288,4.288,0,0,0,4.346-68.8,4.288,4.288,0,0,0,1.2-67.5,4.288,4.288,0,0,0-.107-64.35ZM-16.222-94.035l-23.466,12.3a3.707,3.707,0,0,0-1.449,1.378,3.707,3.707,0,0,0-.53,1.944,3.53,3.53,0,0,0,1.1,2.58,3.53,3.53,0,0,0,2.58,1.1H11.06a3.53,3.53,0,0,0,2.58-1.1,3.53,3.53,0,0,0,1.1-2.58,3.707,3.707,0,0,0-.53-1.944,3.707,3.707,0,0,0-1.449-1.378l-23.466-12.3a5.584,5.584,0,0,0-2.757-.707A5.584,5.584,0,0,0-16.222-94.035Z" transform="translate(91.172 1119.717) rotate(-4)" fill="#fff" stroke="rgba(0,0,0,0)" stroke-width="1" opacity="0.51"/><path d="M6.886-95.833H-23.158a5.8,5.8,0,0,0-4.256,1.753,5.8,5.8,0,0,0-1.753,4.256v54.08a5.8,5.8,0,0,0,1.753,4.256,5.8,5.8,0,0,0,4.256,1.753H6.886a5.8,5.8,0,0,0,4.256-1.753A5.8,5.8,0,0,0,12.9-35.745v-54.08a5.8,5.8,0,0,0-1.753-4.256A5.8,5.8,0,0,0,6.886-95.833Zm0,54.079H-23.158V-83.816H6.886Z" transform="matrix(0.829, 0.559, -0.559, 0.829, 1351.247, 295.75)" fill="#fff" stroke="rgba(0,0,0,0)" stroke-width="1" opacity="0.08"/></g></svg>