<svg xmlns="http://www.w3.org/2000/svg" viewBox="0 0 469.59 438.82"><title>chip</title><g id="a483a929-5d02-481e-8be7-e58608d2a037" data-name="Layer 2"><g id="a8f368e9-4c81-4ccb-8d9d-ec80f100bb14" data-name="Layer 1"><rect width="469.59" height="438.82" rx="74.8" style="fill:#9b9b9b"/><path d="M330.34,178.73H469.59v-20H330.34a37.23,37.23,0,0,0-37.19,37.19V353.69H177.65V83.06H469.59V74.8a74.59,74.59,0,0,0-.94-11.74H250.12V0h-20V63.06H.94A74.59,74.59,0,0,0,0,74.8v8.26H157.65v75.67H0v20H157.65v77.48H0v20H157.65v77.48H0V364a75.26,75.26,0,0,0,.65,9.67H230.12v65.13h20V373.69H468.93a73.5,73.5,0,0,0,.66-9.67V353.69H313.15V276.21H469.59v-20H313.15V195.92A17.21,17.21,0,0,1,330.34,178.73Z" style="fill:#787878"/></g></g></svg>