<svg width="570" height="364" viewBox="0 0 570 364" fill="none" xmlns="http://www.w3.org/2000/svg">
<rect x="0.5" y="0.5" width="569" height="363" rx="10.5" fill="#F5F5F5" stroke="#CCCCCC"/>
<mask id="mask0" mask-type="alpha" maskUnits="userSpaceOnUse" x="0" y="0" width="570" height="364">
<rect x="0.5" y="0.5" width="569" height="363" rx="10.5" fill="#F5F5F5" stroke="#CCCCCC"/>
</mask>
<g mask="url(#mask0)">
<path d="M-7 242.119C57.7965 240.103 122.593 238.087 187.389 236.072C252.186 234.056 316.926 249.735 381.611 283.109C446.295 316.483 511.091 297.78 576 227V375H-7V242.119Z" fill="url(#paint0_linear)" stroke="#A8A8A8" stroke-width="5"/>
</g>
<rect x="32" y="31" width="197" height="17" rx="8.5" fill="#CCCCCC"/>
<rect x="32" y="125" width="85" height="17" rx="8.5" fill="#CCCCCC"/>
<path d="M55.0843 103.776V108H34.1563V103.584L42.6523 94.992C45.5003 92.08 47.4683 89.904 48.5563 88.464C49.6443 86.992 50.1883 85.456 50.1883 83.856C50.1883 82.416 49.6283 81.184 48.5083 80.16C47.3883 79.136 45.9483 78.624 44.1883 78.624C42.6843 78.624 41.3883 79.072 40.3003 79.968C39.2123 80.864 38.5083 81.952 38.1883 83.232L34.1563 81.6C34.7963 79.584 36.0283 77.888 37.8523 76.512C39.6763 75.104 41.8203 74.4 44.2843 74.4C47.2603 74.4 49.7403 75.312 51.7243 77.136C53.7083 78.96 54.7003 81.2 54.7003 83.856C54.7003 87.024 52.9563 90.448 49.4683 94.128L39.8683 103.776H55.0843ZM70.7926 91.584C70.7926 86.592 72.0246 82.48 74.4886 79.248C76.9526 76.016 80.1206 74.4 83.9926 74.4C87.8646 74.4 91.0326 76.032 93.4966 79.296C95.9606 82.528 97.1926 86.624 97.1926 91.584C97.1926 96.512 95.9606 100.624 93.4966 103.92C91.0326 107.152 87.8646 108.768 83.9926 108.768C80.1206 108.768 76.9526 107.152 74.4886 103.92C72.0246 100.624 70.7926 96.512 70.7926 91.584ZM92.6806 91.584C92.6806 87.808 91.8806 84.704 90.2806 82.272C88.7126 79.84 86.6166 78.624 83.9926 78.624C81.3686 78.624 79.2726 79.84 77.7046 82.272C76.1046 84.704 75.3046 87.808 75.3046 91.584C75.3046 95.36 76.1046 98.48 77.7046 100.944C79.2726 103.344 81.3686 104.544 83.9926 104.544C86.6166 104.544 88.7126 103.328 90.2806 100.896C91.8806 98.432 92.6806 95.328 92.6806 91.584ZM101.882 91.584C101.882 86.592 103.114 82.48 105.578 79.248C108.042 76.016 111.21 74.4 115.082 74.4C118.954 74.4 122.122 76.032 124.586 79.296C127.05 82.528 128.282 86.624 128.282 91.584C128.282 96.512 127.05 100.624 124.586 103.92C122.122 107.152 118.954 108.768 115.082 108.768C111.21 108.768 108.042 107.152 105.578 103.92C103.114 100.624 101.882 96.512 101.882 91.584ZM123.77 91.584C123.77 87.808 122.97 84.704 121.37 82.272C119.802 79.84 117.706 78.624 115.082 78.624C112.458 78.624 110.362 79.84 108.794 82.272C107.194 84.704 106.394 87.808 106.394 91.584C106.394 95.36 107.194 98.48 108.794 100.944C110.362 103.344 112.458 104.544 115.082 104.544C117.706 104.544 119.802 103.328 121.37 100.896C122.97 98.432 123.77 95.328 123.77 91.584ZM132.971 91.584C132.971 86.592 134.203 82.48 136.667 79.248C139.131 76.016 142.299 74.4 146.171 74.4C150.043 74.4 153.211 76.032 155.675 79.296C158.139 82.528 159.371 86.624 159.371 91.584C159.371 96.512 158.139 100.624 155.675 103.92C153.211 107.152 150.043 108.768 146.171 108.768C142.299 108.768 139.131 107.152 136.667 103.92C134.203 100.624 132.971 96.512 132.971 91.584ZM154.859 91.584C154.859 87.808 154.059 84.704 152.459 82.272C150.891 79.84 148.795 78.624 146.171 78.624C143.547 78.624 141.451 79.84 139.883 82.272C138.283 84.704 137.483 87.808 137.483 91.584C137.483 95.36 138.283 98.48 139.883 100.944C141.451 103.344 143.547 104.544 146.171 104.544C148.795 104.544 150.891 103.328 152.459 100.896C154.059 98.432 154.859 95.328 154.859 91.584ZM175.088 91.584C175.088 86.592 176.32 82.48 178.784 79.248C181.248 76.016 184.416 74.4 188.288 74.4C192.16 74.4 195.328 76.032 197.792 79.296C200.256 82.528 201.488 86.624 201.488 91.584C201.488 96.512 200.256 100.624 197.792 103.92C195.328 107.152 192.16 108.768 188.288 108.768C184.416 108.768 181.248 107.152 178.784 103.92C176.32 100.624 175.088 96.512 175.088 91.584ZM196.976 91.584C196.976 87.808 196.176 84.704 194.576 82.272C193.008 79.84 190.912 78.624 188.288 78.624C185.664 78.624 183.568 79.84 182 82.272C180.4 84.704 179.6 87.808 179.6 91.584C179.6 95.36 180.4 98.48 182 100.944C183.568 103.344 185.664 104.544 188.288 104.544C190.912 104.544 193.008 103.328 194.576 100.896C196.176 98.432 196.976 95.328 196.976 91.584ZM206.177 91.584C206.177 86.592 207.409 82.48 209.873 79.248C212.337 76.016 215.505 74.4 219.377 74.4C223.249 74.4 226.417 76.032 228.881 79.296C231.345 82.528 232.577 86.624 232.577 91.584C232.577 96.512 231.345 100.624 228.881 103.92C226.417 107.152 223.249 108.768 219.377 108.768C215.505 108.768 212.337 107.152 209.873 103.92C207.409 100.624 206.177 96.512 206.177 91.584ZM228.065 91.584C228.065 87.808 227.265 84.704 225.665 82.272C224.097 79.84 222.001 78.624 219.377 78.624C216.753 78.624 214.657 79.84 213.089 82.272C211.489 84.704 210.689 87.808 210.689 91.584C210.689 95.36 211.489 98.48 213.089 100.944C214.657 103.344 216.753 104.544 219.377 104.544C222.001 104.544 224.097 103.328 225.665 100.896C227.265 98.432 228.065 95.328 228.065 91.584ZM237.266 91.584C237.266 86.592 238.498 82.48 240.962 79.248C243.426 76.016 246.594 74.4 250.466 74.4C254.338 74.4 257.506 76.032 259.97 79.296C262.434 82.528 263.666 86.624 263.666 91.584C263.666 96.512 262.434 100.624 259.97 103.92C257.506 107.152 254.338 108.768 250.466 108.768C246.594 108.768 243.426 107.152 240.962 103.92C238.498 100.624 237.266 96.512 237.266 91.584ZM259.154 91.584C259.154 87.808 258.354 84.704 256.754 82.272C255.186 79.84 253.09 78.624 250.466 78.624C247.842 78.624 245.746 79.84 244.178 82.272C242.578 84.704 241.778 87.808 241.778 91.584C241.778 95.36 242.578 98.48 244.178 100.944C245.746 103.344 247.842 104.544 250.466 104.544C253.09 104.544 255.186 103.328 256.754 100.896C258.354 98.432 259.154 95.328 259.154 91.584Z" fill="black"/>
<defs>
<linearGradient id="paint0_linear" x1="284.5" y1="243.71" x2="284.5" y2="375" gradientUnits="userSpaceOnUse">
<stop stop-color="#B0B0B0"/>
<stop offset="1" stop-color="#CDCDCD" stop-opacity="0.26"/>
</linearGradient>
</defs>
</svg>
