<svg width="380" height="182" viewBox="0 0 380 182" fill="none" xmlns="http://www.w3.org/2000/svg">
<rect x="0.5" y="0.5" width="379" height="181" rx="10.5" fill="#F5F5F5" stroke="#CCCCCC"/>
<path d="M59.0843 124.776V129H38.1563V124.584L46.6523 115.992C49.5003 113.08 51.4683 110.904 52.5563 109.464C53.6443 107.992 54.1883 106.456 54.1883 104.856C54.1883 103.416 53.6283 102.184 52.5083 101.16C51.3883 100.136 49.9483 99.624 48.1883 99.624C46.6843 99.624 45.3883 100.072 44.3003 100.968C43.2123 101.864 42.5083 102.952 42.1883 104.232L38.1563 102.6C38.7963 100.584 40.0283 98.888 41.8523 97.512C43.6763 96.104 45.8203 95.4 48.2843 95.4C51.2603 95.4 53.7403 96.312 55.7243 98.136C57.7083 99.96 58.7003 102.2 58.7003 104.856C58.7003 108.024 56.9563 111.448 53.4683 115.128L43.8683 124.776H59.0843ZM74.7926 112.584C74.7926 107.592 76.0246 103.48 78.4886 100.248C80.9526 97.016 84.1206 95.4 87.9926 95.4C91.8646 95.4 95.0326 97.032 97.4966 100.296C99.9606 103.528 101.193 107.624 101.193 112.584C101.193 117.512 99.9606 121.624 97.4966 124.92C95.0326 128.152 91.8646 129.768 87.9926 129.768C84.1206 129.768 80.9526 128.152 78.4886 124.92C76.0246 121.624 74.7926 117.512 74.7926 112.584ZM96.6806 112.584C96.6806 108.808 95.8806 105.704 94.2806 103.272C92.7126 100.84 90.6166 99.624 87.9926 99.624C85.3686 99.624 83.2726 100.84 81.7046 103.272C80.1046 105.704 79.3046 108.808 79.3046 112.584C79.3046 116.36 80.1046 119.48 81.7046 121.944C83.2726 124.344 85.3686 125.544 87.9926 125.544C90.6166 125.544 92.7126 124.328 94.2806 121.896C95.8806 119.432 96.6806 116.328 96.6806 112.584ZM105.882 112.584C105.882 107.592 107.114 103.48 109.578 100.248C112.042 97.016 115.21 95.4 119.082 95.4C122.954 95.4 126.122 97.032 128.586 100.296C131.05 103.528 132.282 107.624 132.282 112.584C132.282 117.512 131.05 121.624 128.586 124.92C126.122 128.152 122.954 129.768 119.082 129.768C115.21 129.768 112.042 128.152 109.578 124.92C107.114 121.624 105.882 117.512 105.882 112.584ZM127.77 112.584C127.77 108.808 126.97 105.704 125.37 103.272C123.802 100.84 121.706 99.624 119.082 99.624C116.458 99.624 114.362 100.84 112.794 103.272C111.194 105.704 110.394 108.808 110.394 112.584C110.394 116.36 111.194 119.48 112.794 121.944C114.362 124.344 116.458 125.544 119.082 125.544C121.706 125.544 123.802 124.328 125.37 121.896C126.97 119.432 127.77 116.328 127.77 112.584ZM136.971 112.584C136.971 107.592 138.203 103.48 140.667 100.248C143.131 97.016 146.299 95.4 150.171 95.4C154.043 95.4 157.211 97.032 159.675 100.296C162.139 103.528 163.371 107.624 163.371 112.584C163.371 117.512 162.139 121.624 159.675 124.92C157.211 128.152 154.043 129.768 150.171 129.768C146.299 129.768 143.131 128.152 140.667 124.92C138.203 121.624 136.971 117.512 136.971 112.584ZM158.859 112.584C158.859 108.808 158.059 105.704 156.459 103.272C154.891 100.84 152.795 99.624 150.171 99.624C147.547 99.624 145.451 100.84 143.883 103.272C142.283 105.704 141.483 108.808 141.483 112.584C141.483 116.36 142.283 119.48 143.883 121.944C145.451 124.344 147.547 125.544 150.171 125.544C152.795 125.544 154.891 124.328 156.459 121.896C158.059 119.432 158.859 116.328 158.859 112.584ZM179.088 112.584C179.088 107.592 180.32 103.48 182.784 100.248C185.248 97.016 188.416 95.4 192.288 95.4C196.16 95.4 199.328 97.032 201.792 100.296C204.256 103.528 205.488 107.624 205.488 112.584C205.488 117.512 204.256 121.624 201.792 124.92C199.328 128.152 196.16 129.768 192.288 129.768C188.416 129.768 185.248 128.152 182.784 124.92C180.32 121.624 179.088 117.512 179.088 112.584ZM200.976 112.584C200.976 108.808 200.176 105.704 198.576 103.272C197.008 100.84 194.912 99.624 192.288 99.624C189.664 99.624 187.568 100.84 186 103.272C184.4 105.704 183.6 108.808 183.6 112.584C183.6 116.36 184.4 119.48 186 121.944C187.568 124.344 189.664 125.544 192.288 125.544C194.912 125.544 197.008 124.328 198.576 121.896C200.176 119.432 200.976 116.328 200.976 112.584ZM210.177 112.584C210.177 107.592 211.409 103.48 213.873 100.248C216.337 97.016 219.505 95.4 223.377 95.4C227.249 95.4 230.417 97.032 232.881 100.296C235.345 103.528 236.577 107.624 236.577 112.584C236.577 117.512 235.345 121.624 232.881 124.92C230.417 128.152 227.249 129.768 223.377 129.768C219.505 129.768 216.337 128.152 213.873 124.92C211.409 121.624 210.177 117.512 210.177 112.584ZM232.065 112.584C232.065 108.808 231.265 105.704 229.665 103.272C228.097 100.84 226.001 99.624 223.377 99.624C220.753 99.624 218.657 100.84 217.089 103.272C215.489 105.704 214.689 108.808 214.689 112.584C214.689 116.36 215.489 119.48 217.089 121.944C218.657 124.344 220.753 125.544 223.377 125.544C226.001 125.544 228.097 124.328 229.665 121.896C231.265 119.432 232.065 116.328 232.065 112.584ZM241.266 112.584C241.266 107.592 242.498 103.48 244.962 100.248C247.426 97.016 250.594 95.4 254.466 95.4C258.338 95.4 261.506 97.032 263.97 100.296C266.434 103.528 267.666 107.624 267.666 112.584C267.666 117.512 266.434 121.624 263.97 124.92C261.506 128.152 258.338 129.768 254.466 129.768C250.594 129.768 247.426 128.152 244.962 124.92C242.498 121.624 241.266 117.512 241.266 112.584ZM263.154 112.584C263.154 108.808 262.354 105.704 260.754 103.272C259.186 100.84 257.09 99.624 254.466 99.624C251.842 99.624 249.746 100.84 248.178 103.272C246.578 105.704 245.778 108.808 245.778 112.584C245.778 116.36 246.578 119.48 248.178 121.944C249.746 124.344 251.842 125.544 254.466 125.544C257.09 125.544 259.186 124.328 260.754 121.896C262.354 119.432 263.154 116.328 263.154 112.584Z" fill="black"/>
<rect x="36" y="30" width="197" height="33" rx="16.5" fill="#CCCCCC"/>
</svg>
