<svg xmlns="http://www.w3.org/2000/svg" viewBox="0 0 273 273"><defs><style>.cls-1{fill:none}.m{fill:#9c27b0;animation:colorrainbow 10s infinite,jumper 2s infinite;transform-origin:center;transform:scale(1.2)}@keyframes jumper{50%{transform:scale(1.5)}}@keyframes colorrainbow{0%{fill:#f44336}10%{fill:#9c27b0}20%{fill:#3f51b5}30%{fill:#2196f3}40%{fill:#00bcd4}50%{fill:#009688}60%{fill:#4caf50}70%{fill:#8bc34a}80%{fill:#ffc107}90%{fill:#ff9800}100%{fill:#f44336}}</style></defs><g><g><rect class="cls-1" width="273" height="273"/><path class="m" d="M178.92,181.08V126.14c0-8.1-3.6-13.87-13-13.87-8.1,0-14.77,5.41-18,10.09v58.72H124.88V126.14c0-8.1-3.6-13.87-13-13.87-7.92,0-14.59,5.41-18,10.27v58.54H71v-87H93.9v11.35c3.6-5.23,15.13-13.51,28.46-13.51,12.79,0,20.89,5.94,24.14,15.85,5-7.93,16.57-15.85,29.9-15.85,16,0,25.58,8.46,25.58,26.3v62.86Z"/></g></g></svg>
