<svg xmlns="http://www.w3.org/2000/svg" viewBox="0 0 350 350"><defs><style>@keyframes turn{0%{transform:rotate(0deg)}to{transform:rotate(180deg)}}@keyframes fall{0%{transform:translateY(100%)}25%{transform:translateY(0%)}75%,to{transform:translateY(-100%)}}.a{fill:none}.b{clip-path:url(#a);animation:turn 2s infinite;transform-origin:center}.c{fill:#007f60;fill:$mainColor$}.d{fill:#4073d0;fill:$accentColor$;animation:fall 2s infinite;animation-timing-function:cubic-bezier(.47,0,.75,.72)}</style><clipPath id="a"><path class="a" d="M269.35 243.78c-4.65-9-6.89-12.27-8.3-14.11-18-23.82-26.61-30.35-38.47-39.38l-.68-.51a11.84 11.84 0 0 0-16.48 2.12l-5.74 7.37-.28.35a11.78 11.78 0 0 0 2.36 16.38l.58.45c10.88 8.25 16.88 12.8 32.27 33.08a77.23 77.23 0 0 1 5.31 9.26l.06.12c2.6 5 2.66 10 .19 14.06a12.2 12.2 0 0 1-10.73 5.76H113.15a7.94 7.94 0 0 1-1.91-2.25c-5.61-8.65-3.64-20.54 4.59-27.65l63.84-55.16.09-.07 8.89-7.91c18-16 55.38-49.31 67.18-59.49 20.65-17.91 25.24-48.21 10.69-70.64-9.29-14.29-21.18-17.29-29.52-17.29H120.25a45.64 45.64 0 0 0-38.62 21.55c-8.52 13.91-8.88 31.27-1 46.45 4.59 8.84 6.84 12.17 8.3 14.09 18.22 24 26.39 30.21 38.79 39.55l.39.3a11.84 11.84 0 0 0 16.47-2.1l5.84-7.36 1.08-1.42V149a11.79 11.79 0 0 0-3.33-15l-.5-.36c-10.81-8.18-16.78-12.7-32.25-33.07a77.2 77.2 0 0 1-5.31-9.32l-.07-.15c-2.6-5-2.66-10-.19-14.06a12.19 12.19 0 0 1 10.73-5.77h116.27a8.22 8.22 0 0 1 2 2.24c5.61 8.66 3.64 20.56-4.59 27.67-14.93 12.91-70.4 62.37-76.16 67.52l-63.83 55.1C73.56 241.68 69 272 83.52 294.46c9.3 14.28 21.19 17.27 29.52 17.27h116.74a45.62 45.62 0 0 0 38.6-21.46c8.5-13.94 8.86-31.27.97-46.49z"/></clipPath></defs><g class="b"><path class="c" d="M75.16 38.69h200v273h-200z"/><path class="d" d="M75.16 38.69h200v273h-200z"/></g></svg>