<svg xmlns="http://www.w3.org/2000/svg" viewBox="0 0 332 367.1"><defs><style>.a{opacity:0.05;}.b{opacity:0.1;}</style></defs><title>experiments</title><path class="a" d="M295.79,250.84,158.14,120a9.64,9.64,0,0,1-2.58-4.21L125.38,13.66a9.56,9.56,0,0,0-11.86-6.45L53.67,24.9a9.54,9.54,0,0,0-6.45,11.85L77.34,138.69a9.51,9.51,0,0,1,.13,4.94L33,328.5a9.55,9.55,0,0,0,12,11.39l247-73A9.55,9.55,0,0,0,295.79,250.84Z"/><circle class="a" cx="166.45" cy="19.5" r="19.5"/><circle class="a" cx="242.41" cy="104.11" r="26"/><path class="b" d="M77.47,143.63a9.51,9.51,0,0,0-.13-4.94l-18.91-64A166,166,0,0,0,38.13,307Z"/><path class="b" d="M177.57,35.51a19.27,19.27,0,0,1-7.41,3.14,19.47,19.47,0,0,1-14.9-3.19,165.87,165.87,0,0,0-22.56,3l22.86,77.38a9.64,9.64,0,0,0,2.58,4.21l137.65,130.8a9.55,9.55,0,0,1-3.87,16.07L66.06,333.65A166,166,0,1,0,177.57,35.51Zm69.78,94.13a26,26,0,1,1,20.59-30.47A26,26,0,0,1,247.35,129.64Z"/></svg>