<svg xmlns="http://www.w3.org/2000/svg" xmlns:xlink="http://www.w3.org/1999/xlink" width="556" height="556" viewBox="0 0 556 556"><defs><linearGradient id="a" x1="0.5" x2="0.5" y2="1" gradientUnits="objectBoundingBox"><stop offset="0" stop-color="#363a45"/><stop offset="1" stop-color="#181a1d"/></linearGradient></defs><g transform="translate(-682 -262)"><rect width="556" height="556" transform="translate(682 262)" fill="url(#a)"/><g transform="translate(0 103)"><path d="M120.87,0V-53.4c0-15.147-8.109-22.338-21.726-22.338-11.322,0-21.114,6.732-25.4,13.464-2.754-8.415-9.639-13.464-20.5-13.464C41.922-75.735,32.13-68.7,29.07-64.26V-73.9H9.639V0H29.07V-49.725c2.907-4.131,8.568-8.721,15.3-8.721,7.956,0,11.016,4.9,11.016,11.781V0H74.97V-49.878c2.754-3.978,8.415-8.568,15.3-8.568,7.956,0,11.016,4.9,11.016,11.781V0Zm53.4,1.836c24.48,0,39.168-17.748,39.168-38.862,0-20.961-14.688-38.709-39.168-38.709-24.327,0-39.015,17.748-39.015,38.709C135.252-15.912,149.94,1.836,174.267,1.836Zm0-17.289c-12.087,0-18.819-9.945-18.819-21.573,0-11.475,6.732-21.42,18.819-21.42s18.972,9.945,18.972,21.42C193.239-25.4,186.354-15.453,174.267-15.453ZM297.126,0V-52.173c0-14.382-7.8-23.562-24.021-23.562A33.838,33.838,0,0,0,247.248-64.26V-73.9H227.817V0h19.431V-49.725a21.046,21.046,0,0,1,16.83-8.721c8.262,0,13.617,3.519,13.617,13.77V0Zm53.55,1.836c24.48,0,39.168-17.748,39.168-38.862,0-20.961-14.688-38.709-39.168-38.709-24.327,0-39.015,17.748-39.015,38.709C311.661-15.912,326.349,1.836,350.676,1.836Zm0-17.289c-12.087,0-18.819-9.945-18.819-21.573,0-11.475,6.732-21.42,18.819-21.42s18.972,9.945,18.972,21.42C369.648-25.4,362.763-15.453,350.676-15.453Z" transform="translate(763 485)" fill="#fff"/></g><g transform="translate(-545.387 527)"><rect width="239.172" height="114.251" rx="57.125" transform="translate(1386 107)" fill="#f55053"/><path d="M-57.395,0V-15.405h11.05c9.36,0,14.56-6.435,14.56-13.975,0-7.6-5.135-13.975-14.56-13.975h-20.28V0Zm9.815-23.53h-9.815v-11.7h9.815c3.64,0,6.37,2.21,6.37,5.85C-41.21-25.805-43.94-23.53-47.58-23.53ZM16.9,0,29.25-43.355H18.85l-7.54,31.33L3.12-43.355H-4.095l-8.255,31.33-7.6-31.33H-30.29L-17.875,0H-8.06L-.52-29.77,7.085,0ZM71.175,0,54.47-43.355H42.9L26.13,0H36.66l2.73-7.345H57.98L60.645,0ZM55.445-15.47H41.925l6.76-18.655Z" transform="translate(1503.635 185.386)" fill="#fff"/></g></g></svg>